<?xml version="1.0" encoding="utf-8" standalone="no"?>
<!DOCTYPE svg PUBLIC "-//W3C//DTD SVG 1.1//EN"
  "http://www.w3.org/Graphics/SVG/1.1/DTD/svg11.dtd">
<svg xmlns:xlink="http://www.w3.org/1999/xlink" width="648pt" height="345.6pt" viewBox="0 0 648 345.6" xmlns="http://www.w3.org/2000/svg" version="1.1">
 <metadata>
  <rdf:RDF xmlns:dc="http://purl.org/dc/elements/1.1/" xmlns:cc="http://creativecommons.org/ns#" xmlns:rdf="http://www.w3.org/1999/02/22-rdf-syntax-ns#">
   <cc:Work>
    <dc:type rdf:resource="http://purl.org/dc/dcmitype/StillImage"/>
    <dc:date>2026-07-10T21:39:31.322250</dc:date>
    <dc:format>image/svg+xml</dc:format>
    <dc:creator>
     <cc:Agent>
      <dc:title>Matplotlib v3.10.8, https://matplotlib.org/</dc:title>
     </cc:Agent>
    </dc:creator>
   </cc:Work>
  </rdf:RDF>
 </metadata>
 <defs>
  <style type="text/css">*{stroke-linejoin: round; stroke-linecap: butt}</style>
 </defs>
 <g id="figure_1">
  <g id="patch_1">
   <path d="M 0 345.6 
L 648 345.6 
L 648 0 
L 0 0 
z
" style="fill: #ffffff"/>
  </g>
  <g id="axes_1">
   <g id="patch_2">
    <path d="M 50.15 306.056 
L 637.2 306.056 
L 637.2 26.44125 
L 50.15 26.44125 
z
" style="fill: #ffffff"/>
   </g>
   <g id="patch_3">
    <path d="M 76.834091 306.056 
L 150.445376 306.056 
L 150.445376 39.756238 
L 76.834091 39.756238 
z
" clip-path="url(#p80cca9f2e3)" style="fill: #16a085; opacity: 0.85"/>
   </g>
   <g id="patch_4">
    <path d="M 168.848197 306.056 
L 242.459483 306.056 
L 242.459483 188.123248 
L 168.848197 188.123248 
z
" clip-path="url(#p80cca9f2e3)" style="fill: #f39c12; opacity: 0.85"/>
   </g>
   <g id="patch_5">
    <path d="M 260.862304 306.056 
L 334.473589 306.056 
L 334.473589 191.927531 
L 260.862304 191.927531 
z
" clip-path="url(#p80cca9f2e3)" style="fill: #8e44ad; opacity: 0.85"/>
   </g>
   <g id="patch_6">
    <path d="M 352.876411 306.056 
L 426.487696 306.056 
L 426.487696 234.250171 
L 352.876411 234.250171 
z
" clip-path="url(#p80cca9f2e3)" style="fill: #3498db; opacity: 0.85"/>
   </g>
   <g id="patch_7">
    <path d="M 444.890517 306.056 
L 518.501803 306.056 
L 518.501803 241.383201 
L 444.890517 241.383201 
z
" clip-path="url(#p80cca9f2e3)" style="fill: #27ae60; opacity: 0.85"/>
   </g>
   <g id="patch_8">
    <path d="M 536.904624 306.056 
L 610.515909 306.056 
L 610.515909 248.991765 
L 536.904624 248.991765 
z
" clip-path="url(#p80cca9f2e3)" style="fill: #95a5a6; opacity: 0.85"/>
   </g>
   <g id="matplotlib.axis_1">
    <g id="xtick_1">
     <g id="line2d_1">
      <defs>
       <path id="mba9164ef35" d="M 0 0 
L 0 3.5 
" style="stroke: #000000; stroke-width: 0.8"/>
      </defs>
      <g>
       <use xlink:href="#mba9164ef35" x="113.639734" y="306.056" style="stroke: #000000; stroke-width: 0.8"/>
      </g>
     </g>
     <g id="text_1">
      <!-- 三分 -->
      <g transform="translate(103.639734 320.335687) scale(0.1 -0.1)">
       <defs>
        <path id="PingFangHK-Regular-4e09" d="M 787 4742 
L 787 4294 
L 5626 4294 
L 5626 4742 
L 787 4742 
z
M 1216 2528 
L 1216 2080 
L 5190 2080 
L 5190 2528 
L 1216 2528 
z
M 314 160 
L 314 -301 
L 6086 -301 
L 6086 160 
L 314 160 
z
" transform="scale(0.015625)"/>
        <path id="PingFangHK-Regular-5206" d="M 2310 5094 
C 2054 4608 1773 4192 1466 3834 
C 1114 3430 717 3104 282 2854 
L 531 2451 
C 1062 2810 1491 3174 1811 3546 
C 2112 3885 2413 4320 2714 4851 
L 2310 5094 
z
M 2522 2240 
C 2387 1638 2189 1152 1920 781 
C 1619 397 1171 45 582 -275 
L 877 -659 
C 1530 -294 2022 115 2349 576 
C 2624 986 2835 1542 2989 2240 
L 4582 2240 
C 4550 1242 4480 595 4365 288 
C 4256 -6 4032 -154 3686 -154 
C 3354 -154 3002 -147 2630 -134 
L 2758 -589 
L 3923 -589 
C 4243 -570 4474 -467 4614 -282 
C 4762 -90 4864 256 4928 742 
C 4992 1235 5030 1882 5050 2682 
L 1229 2682 
L 1229 2240 
L 2522 2240 
z
M 4115 5178 
L 3718 4954 
C 4109 3942 4800 3117 5792 2477 
L 6099 2842 
C 5146 3411 4486 4192 4115 5178 
z
" transform="scale(0.015625)"/>
       </defs>
       <use xlink:href="#PingFangHK-Regular-4e09"/>
       <use xlink:href="#PingFangHK-Regular-5206" transform="translate(99.999985 0)"/>
      </g>
     </g>
    </g>
    <g id="xtick_2">
     <g id="line2d_2">
      <g>
       <use xlink:href="#mba9164ef35" x="205.65384" y="306.056" style="stroke: #000000; stroke-width: 0.8"/>
      </g>
     </g>
     <g id="text_2">
      <!-- 黄金GS -->
      <g transform="translate(188.75384 320.335687) scale(0.1 -0.1)">
       <defs>
        <path id="PingFangHK-Regular-9ec4" d="M 730 4672 
L 730 4262 
L 2042 4262 
L 2042 3686 
L 371 3686 
L 371 3270 
L 2976 3270 
L 2976 2778 
L 1094 2778 
L 1094 544 
L 5306 544 
L 5306 2778 
L 3424 2778 
L 3424 3270 
L 6035 3270 
L 6035 3686 
L 4333 3686 
L 4333 4262 
L 5696 4262 
L 5696 4672 
L 4333 4672 
L 4333 5222 
L 3891 5222 
L 3891 4672 
L 2483 4672 
L 2483 5216 
L 2042 5216 
L 2042 4672 
L 730 4672 
z
M 3891 3686 
L 2483 3686 
L 2483 4262 
L 3891 4262 
L 3891 3686 
z
M 4858 941 
L 3424 941 
L 3424 1478 
L 4858 1478 
L 4858 941 
z
M 2976 941 
L 1542 941 
L 1542 1478 
L 2976 1478 
L 2976 941 
z
M 1542 1862 
L 1542 2387 
L 2976 2387 
L 2976 1862 
L 1542 1862 
z
M 3424 2387 
L 4858 2387 
L 4858 1862 
L 3424 1862 
L 3424 2387 
z
M 3968 467 
L 3744 134 
C 4448 -51 5133 -307 5798 -634 
L 6042 -250 
C 5414 32 4723 275 3968 467 
z
M 2317 506 
C 1805 205 1152 -38 365 -224 
L 557 -627 
C 1370 -410 2048 -134 2586 198 
L 2317 506 
z
" transform="scale(0.015625)"/>
        <path id="PingFangHK-Regular-91d1" d="M 1523 3398 
L 1523 3027 
L 2976 3027 
L 2976 2106 
L 691 2106 
L 691 1677 
L 2976 1677 
L 2976 -32 
L 2240 -32 
C 2074 474 1894 909 1696 1267 
L 1280 1114 
C 1485 755 1658 378 1792 -32 
L 467 -32 
L 467 -474 
L 5939 -474 
L 5939 -32 
L 4614 -32 
C 4806 314 4986 717 5146 1165 
L 4723 1312 
C 4557 832 4365 384 4147 -32 
L 3437 -32 
L 3437 1677 
L 5715 1677 
L 5715 2106 
L 3437 2106 
L 3437 3027 
L 4890 3027 
L 4890 3379 
C 5184 3206 5498 3046 5837 2906 
L 6099 3290 
C 4909 3789 4006 4416 3392 5178 
L 3021 5178 
C 2317 4403 1408 3770 294 3270 
L 563 2886 
C 896 3040 1216 3213 1523 3398 
z
M 4781 3443 
L 1594 3443 
C 2189 3808 2726 4243 3206 4742 
C 3629 4250 4154 3814 4781 3443 
z
" transform="scale(0.015625)"/>
        <path id="PingFangHK-Regular-47" d="M 2413 4659 
C 1741 4659 1210 4422 819 3942 
C 448 3501 269 2944 269 2266 
C 269 1587 454 1030 826 602 
C 1222 141 1786 -90 2509 -90 
C 2886 -90 3238 -38 3571 64 
C 3885 166 4154 301 4371 480 
L 4371 2349 
L 2419 2349 
L 2419 1894 
L 3853 1894 
L 3853 730 
C 3693 627 3501 538 3277 474 
C 3046 410 2810 371 2560 371 
C 1965 371 1517 550 1216 902 
C 934 1235 794 1690 794 2266 
C 794 2854 934 3322 1229 3667 
C 1523 4019 1914 4192 2413 4192 
C 2816 4192 3142 4096 3392 3898 
C 3629 3712 3782 3450 3853 3104 
L 4378 3104 
C 4294 3603 4096 3981 3776 4243 
C 3437 4525 2982 4659 2413 4659 
z
" transform="scale(0.015625)"/>
        <path id="PingFangHK-Regular-53" d="M 1997 4659 
C 1523 4659 1133 4557 832 4352 
C 493 4134 326 3821 326 3424 
C 326 3040 499 2746 851 2541 
C 998 2464 1350 2336 1901 2170 
C 2413 2022 2739 1914 2867 1837 
C 3168 1677 3322 1453 3322 1165 
C 3322 922 3206 730 2976 589 
C 2746 448 2438 378 2067 378 
C 1658 378 1350 467 1139 634 
C 909 819 768 1114 723 1510 
L 205 1510 
C 243 947 442 531 800 256 
C 1107 26 1530 -90 2067 -90 
C 2611 -90 3040 26 3360 250 
C 3680 480 3840 800 3840 1197 
C 3840 1613 3648 1933 3270 2163 
C 3078 2278 2682 2426 2080 2605 
C 1638 2733 1357 2829 1242 2893 
C 979 3034 851 3219 851 3450 
C 851 3712 960 3904 1178 4032 
C 1370 4147 1632 4198 1971 4198 
C 2342 4198 2630 4122 2835 3955 
C 3034 3795 3162 3552 3219 3219 
L 3738 3219 
C 3693 3699 3520 4064 3213 4307 
C 2918 4544 2509 4659 1997 4659 
z
" transform="scale(0.015625)"/>
       </defs>
       <use xlink:href="#PingFangHK-Regular-9ec4"/>
       <use xlink:href="#PingFangHK-Regular-91d1" transform="translate(99.999985 0)"/>
       <use xlink:href="#PingFangHK-Regular-47" transform="translate(199.999969 0)"/>
       <use xlink:href="#PingFangHK-Regular-53" transform="translate(274.799957 0)"/>
      </g>
     </g>
    </g>
    <g id="xtick_3">
     <g id="line2d_3">
      <g>
       <use xlink:href="#mba9164ef35" x="297.667947" y="306.056" style="stroke: #000000; stroke-width: 0.8"/>
      </g>
     </g>
     <g id="text_3">
      <!-- Fibonacci -->
      <g transform="translate(275.303103 320.335687) scale(0.1 -0.1)">
       <defs>
        <path id="PingFangHK-Regular-46" d="M 461 4570 
L 461 0 
L 986 0 
L 986 2125 
L 3386 2125 
L 3386 2579 
L 986 2579 
L 986 4115 
L 3520 4115 
L 3520 4570 
L 461 4570 
z
" transform="scale(0.015625)"/>
        <path id="PingFangHK-Regular-69" d="M 819 4557 
C 710 4557 621 4525 544 4448 
C 467 4384 435 4294 435 4179 
C 435 4070 467 3981 544 3904 
C 621 3834 710 3795 819 3795 
C 928 3795 1018 3834 1094 3904 
C 1171 3981 1210 4070 1210 4179 
C 1210 4294 1171 4384 1094 4448 
C 1018 4525 928 4557 819 4557 
z
M 563 3309 
L 563 0 
L 1075 0 
L 1075 3309 
L 563 3309 
z
" transform="scale(0.015625)"/>
        <path id="PingFangHK-Regular-62" d="M 397 4659 
L 397 0 
L 877 0 
L 877 544 
C 1101 122 1466 -90 1978 -90 
C 2458 -90 2835 90 3110 435 
C 3354 755 3482 1165 3482 1664 
C 3482 2150 3354 2547 3110 2867 
C 2842 3226 2470 3398 2003 3398 
C 1530 3398 1165 3168 909 2701 
L 909 4659 
L 397 4659 
z
M 1894 2976 
C 2253 2976 2522 2848 2707 2592 
C 2874 2368 2957 2061 2957 1664 
C 2957 1267 2874 954 2720 723 
C 2541 467 2272 333 1914 333 
C 1581 333 1318 461 1139 717 
C 973 947 890 1248 890 1619 
L 890 1683 
C 890 2067 979 2381 1171 2618 
C 1350 2861 1594 2976 1894 2976 
z
" transform="scale(0.015625)"/>
        <path id="PingFangHK-Regular-6f" d="M 1875 3398 
C 1376 3398 986 3232 691 2886 
C 410 2560 269 2150 269 1651 
C 269 1158 410 749 691 429 
C 986 83 1376 -90 1875 -90 
C 2368 -90 2765 83 3066 429 
C 3341 749 3482 1158 3482 1651 
C 3482 2150 3341 2560 3059 2886 
C 2765 3232 2368 3398 1875 3398 
z
M 1875 2970 
C 2221 2970 2496 2835 2701 2566 
C 2874 2323 2963 2022 2963 1651 
C 2963 1293 2874 986 2701 742 
C 2496 474 2221 339 1875 339 
C 1523 339 1248 474 1056 742 
C 877 986 794 1286 794 1651 
C 794 2022 877 2323 1056 2566 
C 1248 2835 1523 2970 1875 2970 
z
" transform="scale(0.015625)"/>
        <path id="PingFangHK-Regular-6e" d="M 1946 3398 
C 1728 3398 1530 3347 1350 3245 
C 1171 3149 1024 3008 909 2822 
L 909 3309 
L 397 3309 
L 397 0 
L 909 0 
L 909 1997 
C 928 2298 1024 2534 1203 2714 
C 1370 2880 1568 2963 1798 2963 
C 2374 2963 2669 2643 2669 1997 
L 2669 0 
L 3181 0 
L 3181 2035 
C 3181 2944 2765 3398 1946 3398 
z
" transform="scale(0.015625)"/>
        <path id="PingFangHK-Regular-61" d="M 1837 3398 
C 1440 3398 1126 3322 883 3168 
C 614 3002 442 2739 371 2394 
L 877 2355 
C 928 2566 1037 2726 1210 2829 
C 1363 2931 1562 2976 1805 2976 
C 2381 2976 2669 2701 2669 2144 
L 2669 1971 
L 1875 1958 
C 1376 1952 992 1856 723 1677 
C 416 1485 269 1203 269 826 
C 269 557 371 333 576 160 
C 774 -6 1037 -90 1370 -90 
C 1677 -90 1952 -19 2195 115 
C 2400 230 2573 378 2701 557 
L 2701 0 
L 3181 0 
L 3181 2125 
C 3181 2509 3078 2810 2886 3027 
C 2656 3277 2310 3398 1837 3398 
z
M 2669 1587 
L 2669 1306 
C 2669 1050 2547 819 2310 621 
C 2067 416 1792 314 1478 314 
C 1274 314 1107 365 979 461 
C 851 563 794 685 794 838 
C 794 1318 1165 1562 1907 1574 
L 2669 1587 
z
" transform="scale(0.015625)"/>
        <path id="PingFangHK-Regular-63" d="M 1824 3398 
C 1331 3398 941 3226 659 2874 
C 397 2554 269 2144 269 1638 
C 269 1133 397 723 659 410 
C 934 77 1318 -90 1818 -90 
C 2227 -90 2554 19 2803 230 
C 3059 448 3219 774 3296 1197 
L 2784 1197 
C 2707 627 2381 339 1818 339 
C 1485 339 1229 461 1056 691 
C 877 922 794 1242 794 1645 
C 794 2048 883 2368 1062 2605 
C 1248 2848 1504 2970 1824 2970 
C 2086 2970 2298 2912 2464 2784 
C 2624 2656 2726 2464 2771 2208 
L 3277 2208 
C 3219 2611 3066 2912 2810 3110 
C 2560 3302 2234 3398 1824 3398 
z
" transform="scale(0.015625)"/>
       </defs>
       <use xlink:href="#PingFangHK-Regular-46"/>
       <use xlink:href="#PingFangHK-Regular-69" transform="translate(57.699997 0)"/>
       <use xlink:href="#PingFangHK-Regular-62" transform="translate(83.299988 0)"/>
       <use xlink:href="#PingFangHK-Regular-6f" transform="translate(141.899979 0)"/>
       <use xlink:href="#PingFangHK-Regular-6e" transform="translate(200.499969 0)"/>
       <use xlink:href="#PingFangHK-Regular-61" transform="translate(256.399963 0)"/>
       <use xlink:href="#PingFangHK-Regular-63" transform="translate(312.299957 0)"/>
       <use xlink:href="#PingFangHK-Regular-63" transform="translate(366.999954 0)"/>
       <use xlink:href="#PingFangHK-Regular-69" transform="translate(421.699951 0)"/>
      </g>
     </g>
    </g>
    <g id="xtick_4">
     <g id="line2d_4">
      <g>
       <use xlink:href="#mba9164ef35" x="389.682053" y="306.056" style="stroke: #000000; stroke-width: 0.8"/>
      </g>
     </g>
     <g id="text_4">
      <!-- 抛物线 -->
      <g transform="translate(374.682053 320.335687) scale(0.1 -0.1)">
       <defs>
        <path id="PingFangHK-Regular-629b" d="M 2534 5158 
L 2534 3808 
L 2138 3808 
L 2138 3398 
L 2534 3398 
L 2534 2842 
C 2522 1382 2202 326 1574 -339 
L 1914 -634 
C 2592 96 2944 1254 2957 2842 
L 2957 3398 
L 3418 3398 
L 3418 51 
C 3418 -346 3622 -544 4038 -544 
L 5357 -544 
C 5715 -544 5926 -410 5990 -141 
C 6029 -45 6067 198 6106 595 
L 5677 730 
C 5677 518 5664 320 5638 134 
C 5600 -45 5510 -134 5357 -134 
L 4096 -134 
C 3917 -134 3834 -51 3834 115 
L 3834 582 
L 4102 352 
C 4634 1050 4902 2150 4915 3654 
L 4915 3706 
L 5414 3706 
C 5402 2310 5376 1472 5338 1203 
C 5312 1024 5222 928 5075 928 
C 4960 928 4826 934 4672 947 
L 4774 550 
C 4941 538 5062 525 5139 525 
C 5491 525 5690 698 5734 1030 
C 5792 1421 5824 2445 5824 4102 
L 4915 4102 
L 4915 5165 
L 4506 5165 
L 4506 4102 
L 4064 4102 
L 4064 3706 
L 4506 3706 
L 4506 3654 
C 4499 2323 4275 1338 3834 698 
L 3834 3808 
L 2957 3808 
L 2957 5158 
L 2534 5158 
z
M 883 -550 
C 1229 -550 1402 -365 1402 -6 
L 1402 1818 
C 1645 1933 1888 2061 2131 2195 
L 2131 2637 
C 1888 2496 1645 2374 1402 2259 
L 1402 3642 
L 1990 3642 
L 1990 4064 
L 1402 4064 
L 1402 5197 
L 960 5197 
L 960 4064 
L 346 4064 
L 346 3642 
L 960 3642 
L 960 2080 
C 730 1990 493 1920 256 1856 
L 371 1414 
C 570 1478 768 1549 960 1626 
L 960 109 
C 960 -58 877 -147 723 -147 
C 595 -147 467 -134 326 -115 
L 416 -550 
L 883 -550 
z
" transform="scale(0.015625)"/>
        <path id="PingFangHK-Regular-7269" d="M 3213 5235 
C 3034 4275 2739 3539 2330 3027 
L 2669 2739 
C 2886 3008 3078 3341 3251 3750 
L 3693 3750 
C 3450 2522 3002 1619 2342 1056 
L 2643 710 
C 3360 1344 3846 2355 4102 3750 
L 4602 3750 
C 4480 2778 4294 1990 4045 1395 
C 3776 806 3379 269 2842 -218 
L 3123 -582 
C 3706 -51 4141 550 4435 1216 
C 4685 1837 4877 2682 5018 3750 
L 5453 3750 
C 5440 1894 5414 781 5370 422 
C 5312 13 5088 -192 4698 -192 
C 4550 -192 4378 -179 4173 -166 
L 4282 -582 
C 4512 -595 4672 -602 4762 -602 
C 5382 -602 5728 -320 5798 243 
C 5862 742 5894 2061 5894 4198 
L 3411 4198 
C 3501 4480 3578 4787 3648 5120 
L 3213 5235 
z
M 896 3443 
L 1421 3443 
L 1421 1715 
C 1062 1574 691 1459 307 1370 
L 416 922 
C 762 1030 1094 1152 1421 1280 
L 1421 -640 
L 1869 -640 
L 1869 1472 
C 2042 1555 2214 1638 2381 1728 
L 2381 2163 
C 2214 2074 2048 1990 1869 1907 
L 1869 3443 
L 2406 3443 
L 2406 3891 
L 1869 3891 
L 1869 5222 
L 1421 5222 
L 1421 3891 
L 973 3891 
C 1011 4166 1037 4448 1050 4730 
L 646 4762 
C 614 4013 480 3302 237 2624 
L 640 2509 
C 742 2810 826 3123 896 3443 
z
" transform="scale(0.015625)"/>
        <path id="PingFangHK-Regular-7ebf" d="M 2547 634 
C 1920 390 1184 192 339 51 
L 397 -397 
C 1203 -250 1920 -51 2547 192 
L 2547 634 
z
M 1408 5261 
C 1152 4499 851 3821 506 3232 
C 448 3149 384 3091 314 3066 
L 422 2643 
C 781 2688 1139 2733 1491 2784 
C 1158 2189 870 1766 634 1523 
C 576 1472 506 1427 422 1389 
L 550 966 
C 1165 1050 1805 1203 2477 1421 
L 2477 1837 
C 2016 1683 1555 1562 1094 1472 
C 1466 1926 1939 2694 2502 3776 
L 2093 3930 
C 1965 3674 1837 3430 1722 3200 
C 1434 3155 1146 3117 858 3091 
C 1190 3590 1523 4256 1850 5088 
L 1408 5261 
z
M 5651 4096 
L 4058 3872 
L 4058 5229 
L 3597 5229 
L 3597 3808 
L 2618 3667 
L 2688 3245 
L 3610 3379 
C 3616 3072 3635 2778 3667 2502 
L 2509 2317 
L 2573 1882 
L 3725 2067 
C 3750 1901 3776 1741 3814 1574 
C 3891 1229 3987 922 4109 640 
C 3635 288 3104 19 2515 -173 
L 2784 -544 
C 3328 -378 3840 -115 4314 237 
C 4352 154 4403 77 4461 0 
C 4736 -384 5024 -576 5331 -589 
C 5664 -589 5920 -160 6099 685 
L 5709 941 
C 5594 256 5446 -90 5280 -90 
C 5114 -90 4928 70 4717 384 
C 4691 422 4672 467 4646 506 
C 5043 851 5408 1274 5747 1766 
L 5382 2016 
C 5114 1606 4806 1248 4461 928 
C 4371 1184 4294 1472 4230 1805 
C 4211 1907 4192 2022 4179 2138 
L 5894 2406 
L 5824 2842 
L 4128 2573 
C 4102 2848 4083 3136 4070 3443 
L 5715 3674 
L 5651 4096 
z
M 4774 5248 
L 4416 5024 
C 4736 4730 4992 4454 5171 4205 
L 5530 4454 
C 5350 4678 5101 4941 4774 5248 
z
" transform="scale(0.015625)"/>
       </defs>
       <use xlink:href="#PingFangHK-Regular-629b"/>
       <use xlink:href="#PingFangHK-Regular-7269" transform="translate(99.999985 0)"/>
       <use xlink:href="#PingFangHK-Regular-7ebf" transform="translate(199.999969 0)"/>
      </g>
     </g>
    </g>
    <g id="xtick_5">
     <g id="line2d_5">
      <g>
       <use xlink:href="#mba9164ef35" x="481.69616" y="306.056" style="stroke: #000000; stroke-width: 0.8"/>
      </g>
     </g>
     <g id="text_5">
      <!-- Brent -->
      <g transform="translate(469.140691 320.335687) scale(0.1 -0.1)">
       <defs>
        <path id="PingFangHK-Regular-42" d="M 461 4570 
L 461 0 
L 2490 0 
C 2957 0 3328 96 3597 275 
C 3910 493 4070 826 4070 1274 
C 4070 1581 3981 1824 3814 2016 
C 3648 2208 3418 2336 3117 2387 
C 3347 2464 3533 2586 3674 2752 
C 3808 2938 3878 3162 3878 3418 
C 3878 3776 3757 4058 3514 4262 
C 3264 4467 2925 4570 2502 4570 
L 461 4570 
z
M 986 4128 
L 2381 4128 
C 2701 4128 2944 4070 3110 3942 
C 3277 3814 3360 3622 3360 3366 
C 3360 3104 3270 2906 3104 2771 
C 2938 2643 2694 2573 2374 2573 
L 986 2573 
L 986 4128 
z
M 986 2138 
L 2445 2138 
C 2797 2138 3066 2074 3251 1933 
C 3443 1792 3546 1574 3546 1280 
C 3546 986 3430 762 3206 621 
C 3014 506 2765 442 2445 442 
L 986 442 
L 986 2138 
z
" transform="scale(0.015625)"/>
        <path id="PingFangHK-Regular-72" d="M 1850 3398 
C 1619 3398 1421 3328 1248 3187 
C 1107 3078 992 2925 902 2733 
L 902 3309 
L 397 3309 
L 397 0 
L 902 0 
L 902 1754 
C 902 2061 986 2323 1165 2541 
C 1338 2771 1555 2880 1811 2880 
C 1971 2880 2138 2861 2304 2810 
L 2304 3322 
C 2182 3373 2029 3398 1850 3398 
z
" transform="scale(0.015625)"/>
        <path id="PingFangHK-Regular-65" d="M 1760 3398 
C 1280 3398 902 3226 621 2880 
C 339 2554 205 2144 205 1658 
C 205 1120 346 698 640 378 
C 922 70 1306 -90 1779 -90 
C 2208 -90 2560 38 2835 282 
C 3059 486 3206 742 3283 1062 
L 2771 1062 
C 2688 832 2579 659 2438 544 
C 2272 410 2048 339 1779 339 
C 1466 339 1216 442 1037 646 
C 858 851 762 1139 736 1510 
L 3347 1510 
C 3334 2086 3206 2541 2963 2861 
C 2694 3219 2291 3398 1760 3398 
z
M 1773 2970 
C 2400 2970 2752 2618 2816 1907 
L 749 1907 
C 781 2234 883 2490 1062 2682 
C 1242 2874 1478 2970 1773 2970 
z
" transform="scale(0.015625)"/>
        <path id="PingFangHK-Regular-74" d="M 1280 4378 
L 774 4166 
L 774 3309 
L 109 3309 
L 109 2880 
L 774 2880 
L 774 774 
C 774 525 826 339 934 211 
C 1050 70 1248 0 1517 0 
L 2016 0 
L 2016 429 
L 1594 429 
C 1478 429 1395 461 1350 512 
C 1299 563 1280 653 1280 774 
L 1280 2880 
L 2099 2880 
L 2099 3309 
L 1280 3309 
L 1280 4378 
z
" transform="scale(0.015625)"/>
       </defs>
       <use xlink:href="#PingFangHK-Regular-42"/>
       <use xlink:href="#PingFangHK-Regular-72" transform="translate(67.699982 0)"/>
       <use xlink:href="#PingFangHK-Regular-65" transform="translate(104.199966 0)"/>
       <use xlink:href="#PingFangHK-Regular-6e" transform="translate(159.699951 0)"/>
       <use xlink:href="#PingFangHK-Regular-74" transform="translate(215.599945 0)"/>
      </g>
     </g>
    </g>
    <g id="xtick_6">
     <g id="line2d_6">
      <g>
       <use xlink:href="#mba9164ef35" x="573.710266" y="306.056" style="stroke: #000000; stroke-width: 0.8"/>
      </g>
     </g>
     <g id="text_6">
      <!-- 二分 -->
      <g transform="translate(563.710266 320.335687) scale(0.1 -0.1)">
       <defs>
        <path id="PingFangHK-Regular-4e8c" d="M 928 4518 
L 928 4064 
L 5472 4064 
L 5472 4518 
L 928 4518 
z
M 339 493 
L 339 26 
L 6054 26 
L 6054 493 
L 339 493 
z
" transform="scale(0.015625)"/>
       </defs>
       <use xlink:href="#PingFangHK-Regular-4e8c"/>
       <use xlink:href="#PingFangHK-Regular-5206" transform="translate(99.999985 0)"/>
      </g>
      <!-- (需导数) -->
      <g transform="translate(555.380579 331.1485) scale(0.1 -0.1)">
       <defs>
        <path id="PingFangHK-Regular-28" d="M 1312 5293 
C 1030 4883 813 4442 653 3974 
C 461 3424 371 2867 371 2298 
C 371 1741 461 1184 653 634 
C 813 173 1030 -269 1312 -685 
L 1760 -685 
C 1498 -256 1293 186 1152 640 
C 960 1203 870 1760 870 2304 
C 870 2854 960 3405 1152 3968 
C 1293 4429 1498 4870 1760 5293 
L 1312 5293 
z
" transform="scale(0.015625)"/>
        <path id="PingFangHK-Regular-9700" d="M 365 2176 
L 365 1779 
L 2874 1779 
L 2650 1293 
L 928 1293 
L 928 -659 
L 1370 -659 
L 1370 902 
L 2330 902 
L 2330 -595 
L 2765 -595 
L 2765 902 
L 3718 902 
L 3718 -595 
L 4160 -595 
L 4160 902 
L 5184 902 
L 5184 -26 
C 5184 -179 5107 -256 4954 -256 
L 4506 -237 
L 4614 -634 
L 5082 -634 
C 5440 -634 5626 -461 5626 -122 
L 5626 1293 
L 3117 1293 
L 3341 1779 
L 6035 1779 
L 6035 2176 
L 365 2176 
z
M 755 4998 
L 755 4621 
L 2976 4621 
L 2976 4218 
L 493 4218 
L 493 2912 
L 934 2912 
L 934 3853 
L 2976 3853 
L 2976 2451 
L 3424 2451 
L 3424 3853 
L 5466 3853 
L 5466 2912 
L 5907 2912 
L 5907 4218 
L 3424 4218 
L 3424 4621 
L 5651 4621 
L 5651 4998 
L 755 4998 
z
M 1472 3622 
L 1318 3322 
C 1728 3283 2125 3232 2502 3162 
L 2624 3450 
C 2253 3526 1869 3584 1472 3622 
z
M 2515 2925 
C 2240 2874 1811 2835 1235 2810 
L 1338 2483 
C 1926 2522 2349 2566 2618 2630 
L 2515 2925 
z
M 3859 3162 
C 4320 3200 4723 3251 5069 3322 
L 4954 3635 
C 4614 3558 4230 3507 3795 3482 
L 3859 3162 
z
M 3917 2918 
L 3782 2637 
C 4205 2586 4614 2515 5011 2419 
L 5139 2733 
C 4755 2816 4346 2880 3917 2918 
z
" transform="scale(0.015625)"/>
        <path id="PingFangHK-Regular-5bfc" d="M 314 1683 
L 314 1235 
L 4211 1235 
L 4211 -6 
C 4211 -160 4115 -237 3930 -237 
C 3686 -237 3437 -224 3168 -205 
L 3270 -659 
L 4090 -659 
C 4474 -659 4672 -480 4672 -122 
L 4672 1235 
L 6080 1235 
L 6080 1683 
L 4672 1683 
L 4672 2086 
L 4211 2086 
L 4211 1683 
L 314 1683 
z
M 5114 4979 
L 986 4979 
L 986 2829 
C 986 2483 1171 2304 1555 2304 
L 5280 2304 
C 5549 2317 5728 2413 5818 2605 
C 5869 2733 5914 2938 5946 3226 
L 5510 3366 
C 5485 3098 5446 2931 5408 2861 
C 5357 2784 5274 2739 5146 2733 
L 1722 2733 
C 1542 2733 1446 2822 1446 2995 
L 1446 3456 
L 5114 3456 
L 5114 4979 
z
M 1446 3878 
L 1446 4563 
L 4653 4563 
L 4653 3878 
L 1446 3878 
z
M 1786 1043 
L 1459 730 
C 1907 365 2266 19 2522 -307 
L 2867 38 
C 2573 371 2214 710 1786 1043 
z
" transform="scale(0.015625)"/>
        <path id="PingFangHK-Regular-6570" d="M 4166 3808 
L 5190 3808 
C 5165 2906 5018 2125 4742 1466 
C 4499 1901 4307 2381 4154 2893 
L 3795 2688 
C 3974 2074 4211 1510 4512 998 
C 4218 486 3827 64 3341 -269 
L 3584 -659 
C 4058 -314 4448 102 4762 602 
C 5069 141 5440 -275 5869 -653 
L 6163 -307 
C 5715 83 5325 531 4998 1037 
C 5370 1805 5574 2726 5606 3808 
L 6074 3808 
L 6074 4250 
L 4275 4250 
C 4339 4531 4397 4838 4448 5165 
L 4006 5242 
C 3859 4102 3578 3194 3155 2528 
L 3437 2176 
C 3738 2611 3981 3155 4166 3808 
z
M 1504 2278 
C 1453 2144 1402 2003 1338 1850 
L 403 1850 
L 403 1446 
L 1152 1446 
C 1024 1203 883 947 717 678 
C 1043 550 1350 429 1638 301 
C 1261 83 800 -96 256 -237 
L 474 -621 
C 1126 -442 1664 -198 2093 96 
C 2470 -83 2803 -256 3085 -429 
L 3328 -70 
C 3040 90 2746 237 2445 378 
C 2778 685 3014 1050 3155 1472 
L 3155 1850 
L 1792 1850 
C 1843 1978 1888 2099 1933 2227 
L 1504 2278 
z
M 2022 563 
C 1779 672 1530 768 1274 858 
C 1395 1043 1510 1242 1613 1446 
L 2733 1446 
C 2579 1114 2342 819 2022 563 
z
M 941 5146 
L 570 5024 
C 723 4787 870 4518 1005 4211 
L 1338 4358 
C 1222 4640 1094 4902 941 5146 
z
M 2886 5171 
C 2765 4909 2605 4640 2413 4371 
L 2739 4205 
C 2938 4467 3104 4736 3232 5011 
L 2886 5171 
z
M 429 4000 
L 429 3597 
L 1421 3597 
C 1203 3238 819 2918 269 2637 
L 506 2259 
C 1056 2592 1446 2982 1690 3430 
L 1690 2362 
L 2112 2362 
L 2112 3142 
C 2330 2982 2592 2765 2893 2490 
L 3130 2848 
C 2790 3085 2451 3296 2112 3482 
L 2112 3597 
L 3270 3597 
L 3270 4000 
L 2112 4000 
L 2112 5222 
L 1690 5222 
L 1690 4000 
L 429 4000 
z
" transform="scale(0.015625)"/>
        <path id="PingFangHK-Regular-29" d="M 371 5293 
C 627 4870 832 4429 979 3968 
C 1165 3405 1261 2854 1261 2304 
C 1261 1760 1165 1203 979 640 
C 832 186 627 -256 371 -685 
L 819 -685 
C 1094 -269 1312 173 1478 634 
C 1664 1184 1760 1741 1760 2298 
C 1760 2867 1664 3424 1478 3974 
C 1312 4442 1094 4883 819 5293 
L 371 5293 
z
" transform="scale(0.015625)"/>
       </defs>
       <use xlink:href="#PingFangHK-Regular-28"/>
       <use xlink:href="#PingFangHK-Regular-9700" transform="translate(33.299988 0)"/>
       <use xlink:href="#PingFangHK-Regular-5bfc" transform="translate(133.299973 0)"/>
       <use xlink:href="#PingFangHK-Regular-6570" transform="translate(233.299957 0)"/>
       <use xlink:href="#PingFangHK-Regular-29" transform="translate(333.299942 0)"/>
      </g>
     </g>
    </g>
   </g>
   <g id="matplotlib.axis_2">
    <g id="ytick_1">
     <g id="line2d_7">
      <path d="M 50.15 306.056 
L 637.2 306.056 
" clip-path="url(#p80cca9f2e3)" style="fill: none; stroke: #b0b0b0; stroke-opacity: 0.3; stroke-width: 0.8; stroke-linecap: square"/>
     </g>
     <g id="line2d_8">
      <defs>
       <path id="mbc699192c6" d="M 0 0 
L -3.5 0 
" style="stroke: #000000; stroke-width: 0.8"/>
      </defs>
      <g>
       <use xlink:href="#mbc699192c6" x="50.15" y="306.056" style="stroke: #000000; stroke-width: 0.8"/>
      </g>
     </g>
     <g id="text_7">
      <!-- 0 -->
      <g transform="translate(37.15 309.695844) scale(0.1 -0.1)">
       <defs>
        <path id="PingFangHK-Regular-30" d="M 1920 4659 
C 1370 4659 960 4422 685 3936 
C 442 3526 320 2976 320 2285 
C 320 1594 442 1043 685 634 
C 960 154 1370 -90 1920 -90 
C 2464 -90 2874 154 3155 634 
C 3398 1043 3520 1594 3520 2285 
C 3520 2976 3398 3526 3155 3936 
C 2874 4422 2464 4659 1920 4659 
z
M 1920 4211 
C 2330 4211 2624 3994 2803 3552 
C 2931 3245 3002 2822 3002 2285 
C 3002 1754 2931 1331 2803 1018 
C 2624 582 2330 358 1920 358 
C 1510 358 1216 582 1037 1018 
C 909 1331 845 1754 845 2285 
C 845 2822 909 3245 1037 3552 
C 1216 3994 1510 4211 1920 4211 
z
" transform="scale(0.015625)"/>
       </defs>
       <use xlink:href="#PingFangHK-Regular-30"/>
      </g>
     </g>
    </g>
    <g id="ytick_2">
     <g id="line2d_9">
      <path d="M 50.15 258.502471 
L 637.2 258.502471 
" clip-path="url(#p80cca9f2e3)" style="fill: none; stroke: #b0b0b0; stroke-opacity: 0.3; stroke-width: 0.8; stroke-linecap: square"/>
     </g>
     <g id="line2d_10">
      <g>
       <use xlink:href="#mbc699192c6" x="50.15" y="258.502471" style="stroke: #000000; stroke-width: 0.8"/>
      </g>
     </g>
     <g id="text_8">
      <!-- 100 -->
      <g transform="translate(27.140625 262.142315) scale(0.1 -0.1)">
       <defs>
        <path id="PingFangHK-Regular-31" d="M 1472 4570 
C 1318 4397 1139 4243 922 4102 
C 704 3974 486 3885 282 3827 
L 282 3302 
C 710 3430 1069 3635 1357 3930 
L 1357 0 
L 1882 0 
L 1882 4570 
L 1472 4570 
z
" transform="scale(0.015625)"/>
       </defs>
       <use xlink:href="#PingFangHK-Regular-31"/>
       <use xlink:href="#PingFangHK-Regular-30" transform="translate(40.099991 0)"/>
       <use xlink:href="#PingFangHK-Regular-30" transform="translate(100.099976 0)"/>
      </g>
     </g>
    </g>
    <g id="ytick_3">
     <g id="line2d_11">
      <path d="M 50.15 210.948942 
L 637.2 210.948942 
" clip-path="url(#p80cca9f2e3)" style="fill: none; stroke: #b0b0b0; stroke-opacity: 0.3; stroke-width: 0.8; stroke-linecap: square"/>
     </g>
     <g id="line2d_12">
      <g>
       <use xlink:href="#mbc699192c6" x="50.15" y="210.948942" style="stroke: #000000; stroke-width: 0.8"/>
      </g>
     </g>
     <g id="text_9">
      <!-- 200 -->
      <g transform="translate(25.15 214.588786) scale(0.1 -0.1)">
       <defs>
        <path id="PingFangHK-Regular-32" d="M 1984 4659 
C 1523 4659 1146 4506 864 4198 
C 582 3898 435 3488 435 2976 
L 960 2976 
C 966 3379 1062 3686 1242 3891 
C 1408 4109 1651 4211 1965 4211 
C 2259 4211 2496 4134 2662 3981 
C 2829 3827 2912 3616 2912 3334 
C 2912 3040 2790 2765 2560 2515 
C 2438 2387 2202 2202 1843 1946 
C 1357 1613 1030 1338 851 1133 
C 544 794 397 416 397 0 
L 3443 0 
L 3443 467 
L 1043 467 
C 1126 774 1459 1126 2042 1517 
C 2515 1837 2829 2086 2989 2253 
C 3283 2573 3437 2931 3437 3328 
C 3437 3725 3296 4051 3027 4294 
C 2752 4538 2406 4659 1984 4659 
z
" transform="scale(0.015625)"/>
       </defs>
       <use xlink:href="#PingFangHK-Regular-32"/>
       <use xlink:href="#PingFangHK-Regular-30" transform="translate(59.999985 0)"/>
       <use xlink:href="#PingFangHK-Regular-30" transform="translate(119.999969 0)"/>
      </g>
     </g>
    </g>
    <g id="ytick_4">
     <g id="line2d_13">
      <path d="M 50.15 163.395413 
L 637.2 163.395413 
" clip-path="url(#p80cca9f2e3)" style="fill: none; stroke: #b0b0b0; stroke-opacity: 0.3; stroke-width: 0.8; stroke-linecap: square"/>
     </g>
     <g id="line2d_14">
      <g>
       <use xlink:href="#mbc699192c6" x="50.15" y="163.395413" style="stroke: #000000; stroke-width: 0.8"/>
      </g>
     </g>
     <g id="text_10">
      <!-- 300 -->
      <g transform="translate(25.15 167.035257) scale(0.1 -0.1)">
       <defs>
        <path id="PingFangHK-Regular-33" d="M 1965 4659 
C 1530 4659 1178 4538 909 4288 
C 627 4038 461 3693 422 3251 
L 941 3251 
C 973 3558 1075 3795 1254 3962 
C 1427 4128 1664 4205 1971 4205 
C 2266 4205 2502 4134 2669 3981 
C 2822 3840 2906 3642 2906 3386 
C 2906 3130 2822 2931 2662 2790 
C 2502 2656 2272 2586 1965 2586 
L 1613 2586 
L 1613 2176 
L 1984 2176 
C 2304 2176 2547 2106 2726 1952 
C 2906 1798 2995 1587 2995 1312 
C 2995 1043 2899 819 2720 640 
C 2522 454 2259 358 1933 358 
C 1645 358 1408 442 1216 595 
C 992 781 870 1056 858 1414 
L 326 1414 
C 365 902 544 512 870 243 
C 1146 26 1498 -90 1933 -90 
C 2406 -90 2790 45 3085 314 
C 3373 576 3520 915 3520 1331 
C 3520 1600 3443 1824 3290 2003 
C 3149 2182 2944 2310 2675 2394 
C 3174 2560 3424 2906 3424 3418 
C 3424 3802 3290 4102 3027 4326 
C 2758 4550 2400 4659 1965 4659 
z
" transform="scale(0.015625)"/>
       </defs>
       <use xlink:href="#PingFangHK-Regular-33"/>
       <use xlink:href="#PingFangHK-Regular-30" transform="translate(59.999985 0)"/>
       <use xlink:href="#PingFangHK-Regular-30" transform="translate(119.999969 0)"/>
      </g>
     </g>
    </g>
    <g id="ytick_5">
     <g id="line2d_15">
      <path d="M 50.15 115.841884 
L 637.2 115.841884 
" clip-path="url(#p80cca9f2e3)" style="fill: none; stroke: #b0b0b0; stroke-opacity: 0.3; stroke-width: 0.8; stroke-linecap: square"/>
     </g>
     <g id="line2d_16">
      <g>
       <use xlink:href="#mbc699192c6" x="50.15" y="115.841884" style="stroke: #000000; stroke-width: 0.8"/>
      </g>
     </g>
     <g id="text_11">
      <!-- 400 -->
      <g transform="translate(25.15 119.481728) scale(0.1 -0.1)">
       <defs>
        <path id="PingFangHK-Regular-34" d="M 2458 4570 
L 154 1536 
L 154 1037 
L 2451 1037 
L 2451 0 
L 2950 0 
L 2950 1037 
L 3693 1037 
L 3693 1466 
L 2950 1466 
L 2950 4570 
L 2458 4570 
z
M 2432 3885 
L 2451 3885 
L 2451 1466 
L 595 1466 
L 2432 3885 
z
" transform="scale(0.015625)"/>
       </defs>
       <use xlink:href="#PingFangHK-Regular-34"/>
       <use xlink:href="#PingFangHK-Regular-30" transform="translate(59.999985 0)"/>
       <use xlink:href="#PingFangHK-Regular-30" transform="translate(119.999969 0)"/>
      </g>
     </g>
    </g>
    <g id="ytick_6">
     <g id="line2d_17">
      <path d="M 50.15 68.288355 
L 637.2 68.288355 
" clip-path="url(#p80cca9f2e3)" style="fill: none; stroke: #b0b0b0; stroke-opacity: 0.3; stroke-width: 0.8; stroke-linecap: square"/>
     </g>
     <g id="line2d_18">
      <g>
       <use xlink:href="#mbc699192c6" x="50.15" y="68.288355" style="stroke: #000000; stroke-width: 0.8"/>
      </g>
     </g>
     <g id="text_12">
      <!-- 500 -->
      <g transform="translate(25.15 71.928199) scale(0.1 -0.1)">
       <defs>
        <path id="PingFangHK-Regular-35" d="M 672 4570 
L 429 2048 
L 928 2048 
C 1018 2227 1158 2368 1338 2458 
C 1510 2554 1702 2598 1920 2598 
C 2253 2598 2515 2502 2701 2298 
C 2893 2099 2995 1818 2995 1453 
C 2995 1133 2886 870 2682 666 
C 2470 461 2208 358 1888 358 
C 1606 358 1370 429 1190 563 
C 986 717 870 941 845 1229 
L 326 1229 
C 358 813 531 480 851 237 
C 1133 19 1478 -90 1882 -90 
C 2330 -90 2714 51 3021 326 
C 3347 621 3514 998 3514 1459 
C 3514 1952 3373 2336 3104 2618 
C 2835 2893 2483 3027 2048 3027 
C 1837 3027 1645 2995 1466 2918 
C 1267 2842 1101 2726 973 2573 
L 947 2573 
L 1101 4102 
L 3328 4102 
L 3328 4570 
L 672 4570 
z
" transform="scale(0.015625)"/>
       </defs>
       <use xlink:href="#PingFangHK-Regular-35"/>
       <use xlink:href="#PingFangHK-Regular-30" transform="translate(59.999985 0)"/>
       <use xlink:href="#PingFangHK-Regular-30" transform="translate(119.999969 0)"/>
      </g>
     </g>
    </g>
    <g id="text_13">
     <!-- 8 个测试函数合计求值次数（越低越好） -->
     <g transform="translate(19.170313 255.913469) rotate(-90) scale(0.1 -0.1)">
      <defs>
       <path id="PingFangHK-Regular-38" d="M 1920 4659 
C 1440 4659 1069 4538 800 4288 
C 550 4064 429 3782 429 3450 
C 429 3206 486 3002 602 2835 
C 723 2656 902 2522 1146 2438 
L 1146 2426 
C 902 2368 704 2234 538 2029 
C 358 1811 269 1555 269 1261 
C 269 858 410 531 691 288 
C 979 38 1389 -90 1920 -90 
C 2445 -90 2854 38 3149 288 
C 3430 531 3571 858 3571 1261 
C 3571 1555 3482 1811 3302 2029 
C 3136 2234 2931 2368 2694 2426 
L 2694 2438 
C 2931 2522 3110 2656 3238 2835 
C 3354 3002 3411 3206 3411 3450 
C 3411 3782 3283 4064 3040 4288 
C 2771 4538 2394 4659 1920 4659 
z
M 1920 4230 
C 2240 4230 2496 4147 2682 3981 
C 2835 3840 2918 3654 2918 3430 
C 2918 3200 2848 3008 2707 2867 
C 2534 2701 2272 2611 1920 2611 
C 1562 2611 1299 2701 1133 2867 
C 992 3008 922 3200 922 3430 
C 922 3654 998 3840 1158 3981 
C 1338 4147 1594 4230 1920 4230 
z
M 1920 2202 
C 2285 2202 2573 2112 2778 1926 
C 2957 1760 3053 1536 3053 1261 
C 3053 992 2957 774 2778 608 
C 2573 429 2291 339 1920 339 
C 1549 339 1261 429 1069 602 
C 877 768 787 992 787 1261 
C 787 1536 877 1760 1069 1926 
C 1267 2112 1549 2202 1920 2202 
z
" transform="scale(0.015625)"/>
       <path id="PingFangHK-Regular-20" transform="scale(0.015625)"/>
       <path id="PingFangHK-Regular-4e2a" d="M 2963 3334 
L 2963 -634 
L 3437 -634 
L 3437 3334 
L 2963 3334 
z
M 2995 5222 
C 2349 4262 1427 3475 230 2867 
L 506 2451 
C 1594 3002 2490 3782 3200 4794 
C 3789 3872 4691 3104 5894 2477 
L 6170 2893 
C 4864 3565 3942 4339 3405 5222 
L 2995 5222 
z
" transform="scale(0.015625)"/>
       <path id="PingFangHK-Regular-6d4b" d="M 691 5094 
L 378 4794 
C 768 4493 1075 4205 1293 3936 
L 1594 4243 
C 1350 4525 1050 4813 691 5094 
z
M 589 3520 
L 275 3226 
C 653 2899 947 2592 1165 2304 
L 1466 2605 
C 1229 2912 934 3213 589 3520 
z
M 1152 1798 
C 909 1056 627 326 307 -384 
L 730 -563 
C 1024 128 1299 864 1542 1645 
L 1152 1798 
z
M 3994 4915 
L 1850 4915 
L 1850 973 
L 2259 973 
L 2259 4518 
L 3584 4518 
L 3584 1011 
L 3994 1011 
L 3994 4915 
z
M 3309 710 
L 3027 442 
C 3437 58 3750 -301 3981 -640 
L 4288 -333 
C 4026 13 3699 365 3309 710 
z
M 2733 4077 
L 2733 2048 
C 2720 1453 2624 973 2458 602 
C 2278 243 1958 -45 1498 -262 
L 1741 -646 
C 2214 -416 2560 -96 2771 301 
C 2989 736 3104 1318 3117 2048 
L 3117 4077 
L 2733 4077 
z
M 5376 -589 
C 5709 -589 5882 -403 5882 -45 
L 5882 5190 
L 5446 5190 
L 5446 64 
C 5446 -102 5370 -192 5222 -192 
C 5018 -192 4800 -179 4576 -160 
L 4672 -589 
L 5376 -589 
z
M 4499 4666 
L 4499 672 
L 4902 672 
L 4902 4666 
L 4499 4666 
z
" transform="scale(0.015625)"/>
       <path id="PingFangHK-Regular-8bd5" d="M 3008 2195 
L 3008 371 
C 2803 333 2592 301 2381 275 
L 2496 -160 
C 3136 -51 3738 83 4294 243 
L 4294 672 
C 4026 595 3744 525 3462 461 
L 3462 2195 
L 4064 2195 
L 4064 2624 
L 2406 2624 
L 2406 2195 
L 3008 2195 
z
M 5434 -544 
C 5728 -544 5978 -83 6189 838 
L 5824 1133 
C 5696 371 5562 -19 5434 -45 
C 5242 -19 5075 352 4934 1082 
C 4832 1683 4762 2528 4730 3629 
L 5997 3629 
L 5997 4077 
L 4723 4077 
C 4710 4442 4710 4832 4710 5248 
L 4262 5248 
C 4262 4838 4262 4448 4275 4077 
L 2259 4077 
L 2259 3629 
L 4288 3629 
C 4314 2790 4358 2086 4429 1523 
C 4518 858 4659 339 4851 -45 
C 5018 -378 5216 -544 5434 -544 
z
M 5261 5254 
L 4934 5056 
C 5203 4749 5421 4474 5581 4224 
L 5901 4448 
C 5747 4678 5536 4947 5261 5254 
z
M 1037 5165 
L 717 4851 
C 1152 4506 1498 4173 1754 3859 
L 2067 4179 
C 1786 4512 1446 4838 1037 5165 
z
M 269 3270 
L 269 2829 
L 1165 2829 
L 1165 262 
C 1165 166 1114 77 1024 0 
L 1203 -410 
C 1600 -115 1971 224 2323 608 
L 2202 1094 
C 1997 870 1805 666 1613 480 
L 1613 3270 
L 269 3270 
z
" transform="scale(0.015625)"/>
       <path id="PingFangHK-Regular-51fd" d="M 5331 3821 
L 5331 128 
L 1075 128 
L 1075 3827 
L 634 3827 
L 634 -646 
L 1075 -646 
L 1075 -294 
L 5331 -294 
L 5331 -653 
L 5773 -653 
L 5773 3821 
L 5331 3821 
z
M 1747 3635 
L 1408 3418 
C 1779 3059 2080 2739 2304 2445 
L 2650 2688 
C 2438 2957 2138 3277 1747 3635 
z
M 4666 3667 
C 4422 3283 4141 2950 3808 2669 
L 4141 2432 
C 4486 2733 4781 3085 5037 3488 
L 4666 3667 
z
M 1261 4986 
L 1261 4550 
L 4531 4550 
C 4211 4346 3731 4083 3085 3763 
L 3085 1126 
C 3085 941 3002 845 2835 845 
C 2637 845 2458 851 2291 858 
L 2406 429 
L 3002 429 
C 3341 429 3514 608 3514 966 
L 3514 3507 
C 4141 3853 4710 4198 5222 4550 
L 5222 4986 
L 1261 4986 
z
M 2406 2157 
C 2042 1754 1632 1395 1184 1088 
L 1459 781 
C 1901 1082 2323 1459 2726 1920 
L 2406 2157 
z
M 4096 2150 
L 3776 1907 
C 4154 1600 4531 1229 4909 806 
L 5242 1056 
C 4883 1453 4506 1818 4096 2150 
z
" transform="scale(0.015625)"/>
       <path id="PingFangHK-Regular-5408" d="M 3034 5235 
C 2278 4346 1338 3603 198 3002 
L 442 2560 
C 1581 3200 2502 3949 3200 4819 
C 3955 3898 4864 3149 5933 2573 
L 6182 3014 
C 5120 3552 4179 4294 3366 5235 
L 3034 5235 
z
M 5222 1946 
L 1178 1946 
L 1178 -634 
L 1626 -634 
L 1626 -250 
L 4774 -250 
L 4774 -634 
L 5222 -634 
L 5222 1946 
z
M 1626 192 
L 1626 1510 
L 4774 1510 
L 4774 192 
L 1626 192 
z
M 1536 3200 
L 1536 2758 
L 4864 2758 
L 4864 3200 
L 1536 3200 
z
" transform="scale(0.015625)"/>
       <path id="PingFangHK-Regular-8ba1" d="M 2291 3309 
L 2291 2848 
L 4026 2848 
L 4026 -653 
L 4499 -653 
L 4499 2848 
L 6144 2848 
L 6144 3309 
L 4499 3309 
L 4499 5235 
L 4026 5235 
L 4026 3309 
L 2291 3309 
z
M 1037 5165 
L 717 4851 
C 1178 4506 1549 4173 1818 3859 
L 2131 4179 
C 1837 4512 1472 4838 1037 5165 
z
M 288 3270 
L 288 2829 
L 1229 2829 
L 1229 275 
C 1229 173 1178 83 1082 6 
L 1261 -410 
C 1715 -109 2144 230 2541 614 
L 2426 1088 
C 2157 832 1901 614 1670 422 
L 1670 3270 
L 288 3270 
z
" transform="scale(0.015625)"/>
       <path id="PingFangHK-Regular-6c42" d="M 461 4051 
L 461 3610 
L 2995 3610 
L 2995 -608 
L 3462 -608 
L 3462 2483 
C 3994 1446 4781 570 5824 -147 
L 6144 230 
C 5440 678 4838 1197 4352 1786 
C 4851 2125 5274 2515 5632 2957 
L 5286 3264 
C 4954 2829 4563 2445 4102 2112 
C 3853 2458 3642 2835 3462 3232 
L 3462 3610 
L 5926 3610 
L 5926 4051 
L 3462 4051 
L 3462 5222 
L 2995 5222 
L 2995 4051 
L 461 4051 
z
M 1107 3136 
L 794 2829 
C 1306 2458 1702 2106 1997 1773 
L 2310 2080 
C 1990 2432 1587 2784 1107 3136 
z
M 4314 5184 
L 4013 4902 
C 4397 4608 4698 4326 4915 4070 
L 5229 4384 
C 4986 4653 4678 4915 4314 5184 
z
M 2541 1811 
C 1939 1197 1222 672 384 250 
L 589 -211 
C 1408 250 2099 787 2656 1389 
L 2541 1811 
z
" transform="scale(0.015625)"/>
       <path id="PingFangHK-Regular-503c" d="M 3942 5254 
C 3930 5050 3910 4838 3891 4627 
L 2208 4627 
L 2208 4205 
L 3846 4205 
C 3821 4019 3789 3834 3763 3648 
L 2592 3648 
L 2592 -26 
L 1933 -26 
L 1933 -448 
L 6125 -448 
L 6125 -26 
L 5517 -26 
L 5517 3648 
L 4218 3648 
C 4243 3827 4275 4013 4301 4205 
L 5939 4205 
L 5939 4627 
L 4352 4627 
C 4365 4806 4384 4998 4397 5190 
L 3942 5254 
z
M 3034 -26 
L 3034 538 
L 5075 538 
L 5075 -26 
L 3034 -26 
z
M 3034 909 
L 3034 1446 
L 5075 1446 
L 5075 909 
L 3034 909 
z
M 3034 1818 
L 3034 2342 
L 5075 2342 
L 5075 1818 
L 3034 1818 
z
M 3034 2714 
L 3034 3232 
L 5075 3232 
L 5075 2714 
L 3034 2714 
z
M 1146 3078 
L 1146 -640 
L 1594 -640 
L 1594 3866 
C 1779 4243 1939 4640 2067 5056 
L 1651 5248 
C 1370 4262 909 3386 275 2624 
L 429 2138 
C 691 2432 928 2746 1146 3078 
z
" transform="scale(0.015625)"/>
       <path id="PingFangHK-Regular-6b21" d="M 3091 3814 
L 5414 3814 
C 5286 3315 5126 2867 4928 2470 
L 5382 2342 
C 5600 2874 5773 3411 5907 3955 
L 5907 4256 
L 3219 4256 
C 3290 4538 3347 4845 3398 5178 
L 2938 5248 
C 2784 4134 2445 3258 1920 2630 
L 2304 2362 
C 2630 2733 2893 3219 3091 3814 
z
M 3750 3379 
C 3738 2547 3629 1856 3424 1312 
C 3136 672 2560 134 1690 -288 
L 1990 -653 
C 2976 -166 3603 461 3878 1229 
C 3930 1370 3974 1517 4013 1677 
C 4422 755 5037 -13 5869 -640 
L 6170 -288 
C 5203 378 4531 1280 4147 2419 
C 4179 2714 4198 3034 4198 3379 
L 3750 3379 
z
M 691 4954 
L 320 4723 
C 806 4237 1197 3789 1485 3392 
L 1843 3648 
C 1574 4019 1190 4454 691 4954 
z
M 1472 2208 
C 1126 1376 723 557 250 -243 
L 678 -435 
C 1120 339 1517 1171 1875 2054 
L 1472 2208 
z
" transform="scale(0.015625)"/>
       <path id="PingFangHK-Regular-ff08" d="M 5440 5293 
C 5158 4883 4941 4442 4781 3974 
C 4589 3424 4499 2867 4499 2298 
C 4499 1741 4589 1184 4781 634 
C 4941 173 5158 -269 5440 -685 
L 5888 -685 
C 5632 -256 5427 186 5280 640 
C 5088 1203 4998 1760 4998 2304 
C 4998 2854 5088 3405 5280 3968 
C 5427 4429 5632 4870 5888 5293 
L 5440 5293 
z
" transform="scale(0.015625)"/>
       <path id="PingFangHK-Regular-8d8a" d="M 5606 320 
C 5824 320 6010 646 6163 1299 
L 5811 1504 
C 5722 1030 5638 787 5562 787 
C 5459 787 5338 928 5210 1210 
L 5152 1357 
C 5466 1882 5709 2509 5882 3251 
L 5517 3418 
C 5382 2854 5210 2362 4998 1926 
C 4954 2112 4915 2317 4883 2547 
C 4826 2893 4787 3328 4768 3859 
L 6022 3859 
L 6022 4250 
L 4755 4250 
C 4742 4550 4742 4877 4742 5229 
L 4307 5229 
C 4307 4883 4307 4557 4320 4250 
L 3149 4250 
L 3149 1331 
C 3149 1216 3098 1133 3008 1082 
L 3117 672 
C 3533 877 3936 1114 4333 1376 
L 4250 1779 
C 4006 1606 3776 1459 3558 1331 
L 3558 3859 
L 4339 3859 
C 4365 3245 4422 2726 4499 2310 
C 4563 1990 4634 1702 4717 1446 
C 4467 1075 4179 768 3846 525 
L 4083 166 
C 4384 390 4659 666 4902 986 
C 4928 928 4960 870 4992 813 
C 5190 486 5395 320 5606 320 
z
M 5306 5216 
L 4998 5024 
C 5261 4762 5466 4525 5619 4307 
L 5926 4518 
C 5779 4717 5574 4947 5306 5216 
z
M 525 4371 
L 525 3962 
L 1517 3962 
L 1517 3091 
L 358 3091 
L 358 2669 
L 1594 2669 
L 1594 448 
C 1395 634 1216 890 1056 1216 
C 1094 1523 1114 1843 1126 2170 
L 723 2221 
C 691 1274 531 416 237 -352 
L 589 -666 
C 742 -269 870 154 960 608 
C 1210 198 1504 -96 1837 -262 
C 2214 -454 3174 -550 4717 -550 
L 6042 -550 
L 6118 -90 
C 5786 -102 5286 -115 4608 -115 
C 3309 -115 2477 -45 2112 96 
C 2086 109 2067 115 2042 128 
L 2042 1402 
L 2733 1402 
L 2733 1818 
L 2042 1818 
L 2042 2669 
L 2906 2669 
L 2906 3091 
L 1958 3091 
L 1958 3962 
L 2861 3962 
L 2861 4371 
L 1958 4371 
L 1958 5229 
L 1517 5229 
L 1517 4371 
L 525 4371 
z
" transform="scale(0.015625)"/>
       <path id="PingFangHK-Regular-4f4e" d="M 1709 5235 
C 1402 4250 902 3379 218 2618 
L 365 2138 
C 621 2406 851 2682 1069 2976 
L 1069 -653 
L 1517 -653 
L 1517 3667 
C 1760 4102 1965 4557 2125 5043 
L 1709 5235 
z
M 2797 2560 
L 4346 2560 
C 4378 1779 4435 1222 4512 883 
C 4602 435 4755 83 4966 -186 
C 5126 -384 5306 -486 5498 -486 
C 5818 -486 6035 -58 6150 794 
L 5779 1050 
C 5702 358 5600 0 5478 -13 
C 5299 13 5146 256 5005 704 
C 4896 1037 4819 1658 4781 2560 
L 5933 2560 
L 5933 3002 
L 4762 3002 
C 4749 3456 4736 3974 4736 4550 
C 5152 4634 5517 4717 5824 4800 
L 5568 5171 
C 4806 4966 3738 4781 2355 4614 
L 2355 992 
C 2355 838 2291 730 2163 672 
L 2285 282 
C 2950 461 3533 627 4032 794 
L 3955 1197 
C 3584 1062 3194 941 2797 826 
L 2797 2560 
z
M 4333 3002 
L 2797 3002 
L 2797 4256 
C 3347 4326 3853 4397 4307 4474 
C 4307 3936 4320 3443 4333 3002 
z
M 2291 -51 
L 2291 -480 
L 4365 -480 
L 4365 -51 
L 2291 -51 
z
" transform="scale(0.015625)"/>
       <path id="PingFangHK-Regular-597d" d="M 1363 5299 
C 1293 4858 1216 4429 1126 4006 
L 352 4006 
L 352 3565 
L 1030 3565 
C 877 2912 704 2304 506 1741 
C 864 1478 1197 1229 1491 992 
C 1190 493 800 70 314 -282 
L 627 -666 
C 1120 -288 1530 166 1850 698 
C 2170 429 2445 186 2662 -45 
L 2976 320 
C 2739 550 2438 813 2067 1101 
C 2426 1850 2637 2733 2694 3744 
L 2694 4006 
L 1587 4006 
C 1664 4390 1741 4813 1818 5261 
L 1363 5299 
z
M 1696 1382 
C 1485 1536 1254 1702 1011 1875 
C 1178 2323 1338 2886 1491 3565 
L 2240 3565 
C 2182 2746 2003 2016 1696 1382 
z
M 2912 2541 
L 2912 2093 
L 4358 2093 
L 4358 186 
C 4358 -32 4282 -141 4134 -141 
C 3827 -141 3539 -134 3277 -134 
L 3398 -570 
L 4320 -570 
C 4653 -570 4826 -365 4826 45 
L 4826 2093 
L 6131 2093 
L 6131 2541 
L 4826 2541 
L 4826 3206 
C 5210 3590 5562 4006 5869 4448 
L 5869 4896 
L 3098 4896 
L 3098 4448 
L 5344 4448 
C 5030 4013 4704 3648 4358 3347 
L 4358 2541 
L 2912 2541 
z
" transform="scale(0.015625)"/>
       <path id="PingFangHK-Regular-ff09" d="M 512 5293 
C 768 4870 966 4429 1120 3968 
C 1306 3405 1402 2854 1402 2304 
C 1402 1760 1306 1203 1120 640 
C 966 186 768 -256 512 -685 
L 960 -685 
C 1235 -269 1453 173 1619 634 
C 1805 1184 1901 1741 1901 2298 
C 1901 2867 1805 3424 1619 3974 
C 1453 4442 1235 4883 960 5293 
L 512 5293 
z
" transform="scale(0.015625)"/>
      </defs>
      <use xlink:href="#PingFangHK-Regular-38"/>
      <use xlink:href="#PingFangHK-Regular-20" transform="translate(59.999985 0)"/>
      <use xlink:href="#PingFangHK-Regular-4e2a" transform="translate(93.299973 0)"/>
      <use xlink:href="#PingFangHK-Regular-6d4b" transform="translate(193.299957 0)"/>
      <use xlink:href="#PingFangHK-Regular-8bd5" transform="translate(293.299942 0)"/>
      <use xlink:href="#PingFangHK-Regular-51fd" transform="translate(393.299927 0)"/>
      <use xlink:href="#PingFangHK-Regular-6570" transform="translate(493.299911 0)"/>
      <use xlink:href="#PingFangHK-Regular-5408" transform="translate(593.299896 0)"/>
      <use xlink:href="#PingFangHK-Regular-8ba1" transform="translate(693.299881 0)"/>
      <use xlink:href="#PingFangHK-Regular-6c42" transform="translate(793.299866 0)"/>
      <use xlink:href="#PingFangHK-Regular-503c" transform="translate(893.29985 0)"/>
      <use xlink:href="#PingFangHK-Regular-6b21" transform="translate(993.299835 0)"/>
      <use xlink:href="#PingFangHK-Regular-6570" transform="translate(1093.29982 0)"/>
      <use xlink:href="#PingFangHK-Regular-ff08" transform="translate(1193.299805 0)"/>
      <use xlink:href="#PingFangHK-Regular-8d8a" transform="translate(1293.299789 0)"/>
      <use xlink:href="#PingFangHK-Regular-4f4e" transform="translate(1393.299774 0)"/>
      <use xlink:href="#PingFangHK-Regular-8d8a" transform="translate(1493.299759 0)"/>
      <use xlink:href="#PingFangHK-Regular-597d" transform="translate(1593.299744 0)"/>
      <use xlink:href="#PingFangHK-Regular-ff09" transform="translate(1693.299728 0)"/>
     </g>
    </g>
   </g>
   <g id="patch_9">
    <path d="M 50.15 306.056 
L 50.15 26.44125 
" style="fill: none; stroke: #000000; stroke-width: 0.8; stroke-linejoin: miter; stroke-linecap: square"/>
   </g>
   <g id="patch_10">
    <path d="M 637.2 306.056 
L 637.2 26.44125 
" style="fill: none; stroke: #000000; stroke-width: 0.8; stroke-linejoin: miter; stroke-linecap: square"/>
   </g>
   <g id="patch_11">
    <path d="M 50.15 306.056 
L 637.2 306.056 
" style="fill: none; stroke: #000000; stroke-width: 0.8; stroke-linejoin: miter; stroke-linecap: square"/>
   </g>
   <g id="patch_12">
    <path d="M 50.15 26.44125 
L 637.2 26.44125 
" style="fill: none; stroke: #000000; stroke-width: 0.8; stroke-linejoin: miter; stroke-linecap: square"/>
   </g>
   <g id="text_14">
    <!-- 560 -->
    <g transform="translate(104.639734 35.951956) scale(0.1 -0.1)">
     <defs>
      <path id="PingFangHK-Regular-36" d="M 1984 4659 
C 1466 4659 1056 4422 755 3942 
C 467 3488 326 2893 326 2163 
C 326 1466 454 922 723 531 
C 1005 122 1421 -90 1978 -90 
C 2426 -90 2790 64 3085 358 
C 3373 653 3520 1030 3520 1478 
C 3520 1926 3386 2285 3123 2566 
C 2854 2848 2502 2989 2067 2989 
C 1798 2989 1562 2925 1357 2790 
C 1139 2662 979 2477 864 2240 
L 838 2240 
C 832 2323 832 2381 832 2406 
C 832 2925 928 3354 1133 3686 
C 1338 4045 1619 4218 1978 4218 
C 2509 4218 2822 3962 2925 3437 
L 3443 3437 
C 3315 4256 2829 4659 1984 4659 
z
M 1965 2554 
C 2278 2554 2528 2458 2720 2253 
C 2906 2061 3002 1805 3002 1478 
C 3002 1152 2906 883 2714 666 
C 2522 461 2272 352 1965 352 
C 1645 352 1395 461 1203 678 
C 1011 883 922 1146 922 1466 
C 922 1786 1018 2042 1216 2246 
C 1414 2451 1664 2554 1965 2554 
z
" transform="scale(0.015625)"/>
     </defs>
     <use xlink:href="#PingFangHK-Regular-35"/>
     <use xlink:href="#PingFangHK-Regular-36" transform="translate(59.999985 0)"/>
     <use xlink:href="#PingFangHK-Regular-30" transform="translate(119.999969 0)"/>
    </g>
   </g>
   <g id="text_15">
    <!-- 无复用 -->
    <g style="fill: #ffffff" transform="translate(101.639734 172.906119) scale(0.08 -0.08)">
     <defs>
      <path id="PingFangHK-Regular-65e0" d="M 5248 -538 
C 5491 -538 5670 -480 5786 -365 
C 5914 -224 6003 154 6054 781 
L 5619 922 
C 5594 422 5542 128 5466 26 
C 5402 -58 5306 -102 5165 -102 
L 4211 -102 
C 4058 -102 3981 -26 3981 115 
L 3981 2048 
L 3520 2048 
L 3520 19 
C 3520 -352 3699 -538 4070 -538 
L 5248 -538 
z
M 851 4883 
L 851 4435 
L 2688 4435 
L 2688 3994 
C 2682 3610 2656 3238 2605 2886 
L 422 2886 
L 422 2445 
L 2528 2445 
C 2445 2035 2323 1670 2170 1344 
C 1824 698 1216 179 333 -218 
L 589 -627 
C 1478 -243 2118 294 2515 992 
C 2733 1402 2899 1888 3008 2445 
L 5965 2445 
L 5965 2886 
L 3078 2886 
C 3123 3232 3149 3603 3155 3994 
L 3155 4435 
L 5446 4435 
L 5446 4883 
L 851 4883 
z
" transform="scale(0.015625)"/>
      <path id="PingFangHK-Regular-590d" d="M 1888 4352 
L 5760 4352 
L 5760 4755 
L 2099 4755 
C 2163 4902 2227 5056 2278 5222 
L 1830 5286 
C 1587 4570 1126 3962 442 3462 
L 723 3098 
C 1043 3334 1318 3597 1555 3885 
L 1555 1875 
L 2240 1875 
C 1894 1357 1357 928 614 589 
L 851 198 
C 1184 371 1491 563 1760 774 
C 2080 518 2470 294 2938 90 
C 2272 -102 1466 -224 518 -262 
L 704 -659 
C 1805 -595 2746 -422 3514 -128 
C 4166 -346 4947 -525 5843 -653 
L 6099 -275 
C 5338 -173 4659 -45 4064 122 
C 4563 384 4966 710 5274 1107 
L 5274 1434 
L 2432 1434 
C 2534 1574 2630 1722 2720 1875 
L 5274 1875 
L 5274 3923 
L 1587 3923 
C 1690 4051 1792 4198 1888 4352 
z
M 3507 294 
C 2918 499 2432 742 2054 1024 
L 2093 1062 
L 4704 1062 
C 4397 755 4000 499 3507 294 
z
M 4826 2246 
L 2003 2246 
L 2003 2714 
L 4518 2714 
L 4518 3085 
L 2003 3085 
L 2003 3558 
L 4826 3558 
L 4826 2246 
z
" transform="scale(0.015625)"/>
      <path id="PingFangHK-Regular-7528" d="M 1363 2995 
L 2989 2995 
L 2989 1875 
L 1363 1875 
L 1363 2995 
z
M 1338 1453 
L 2989 1453 
L 2989 -422 
L 3462 -422 
L 3462 1453 
L 5203 1453 
L 5203 339 
C 5203 70 5082 -64 4851 -64 
C 4634 -64 4397 -51 4141 -38 
L 4262 -493 
L 4998 -493 
C 5446 -493 5670 -269 5670 179 
L 5670 4973 
L 902 4973 
L 902 1901 
C 890 1024 678 301 269 -269 
L 621 -582 
C 1030 -45 1267 634 1338 1453 
z
M 5203 1875 
L 3462 1875 
L 3462 2995 
L 5203 2995 
L 5203 1875 
z
M 5203 3424 
L 3462 3424 
L 3462 4525 
L 5203 4525 
L 5203 3424 
z
M 2989 4525 
L 2989 3424 
L 1363 3424 
L 1363 4525 
L 2989 4525 
z
" transform="scale(0.015625)"/>
     </defs>
     <use xlink:href="#PingFangHK-Regular-65e0"/>
     <use xlink:href="#PingFangHK-Regular-590d" transform="translate(99.999985 0)"/>
     <use xlink:href="#PingFangHK-Regular-7528" transform="translate(199.999969 0)"/>
    </g>
   </g>
   <g id="text_16">
    <!-- 248 -->
    <g transform="translate(196.65384 184.318966) scale(0.1 -0.1)">
     <use xlink:href="#PingFangHK-Regular-32"/>
     <use xlink:href="#PingFangHK-Regular-34" transform="translate(59.999985 0)"/>
     <use xlink:href="#PingFangHK-Regular-38" transform="translate(119.999969 0)"/>
    </g>
   </g>
   <g id="text_17">
    <!-- 复用,比率恒定 -->
    <g style="fill: #ffffff" transform="translate(180.59759 247.089624) scale(0.08 -0.08)">
     <defs>
      <path id="PingFangHK-Regular-2c" d="M 845 762 
C 717 762 621 730 550 653 
C 467 582 429 486 429 365 
C 429 256 467 160 544 83 
C 621 6 710 -32 819 -32 
C 883 -32 928 -19 960 -6 
C 960 -160 909 -301 819 -435 
C 717 -563 576 -659 410 -717 
L 410 -1030 
C 685 -960 909 -819 1075 -614 
C 1242 -397 1325 -147 1325 134 
C 1325 320 1280 467 1197 582 
C 1107 704 986 762 845 762 
z
" transform="scale(0.015625)"/>
      <path id="PingFangHK-Regular-6bd4" d="M 1254 2886 
L 2899 2886 
L 2899 3334 
L 1254 3334 
L 1254 5107 
L 794 5107 
L 794 154 
C 794 38 742 -51 640 -115 
L 781 -544 
C 1587 -371 2342 -173 3046 58 
L 2931 486 
C 2374 307 1818 154 1254 26 
L 1254 2886 
z
M 5203 -461 
C 5434 -454 5613 -384 5741 -256 
C 5875 -102 5971 352 6029 1094 
L 5587 1235 
C 5562 582 5491 205 5389 96 
C 5312 19 5210 -19 5088 -19 
L 4128 -19 
C 3936 -19 3846 77 3846 262 
L 3846 2829 
L 5818 2950 
L 5818 3398 
L 3846 3277 
L 3846 5152 
L 3379 5152 
L 3379 179 
C 3379 -243 3584 -461 3994 -461 
L 5203 -461 
z
" transform="scale(0.015625)"/>
      <path id="PingFangHK-Regular-7387" d="M 448 4691 
L 448 4256 
L 2803 4256 
C 2598 3840 2330 3533 1997 3334 
L 2086 2963 
C 2458 2989 2816 3021 3162 3046 
C 2765 2598 2426 2291 2144 2131 
L 1978 2093 
L 2067 1690 
C 2374 1715 2669 1741 2963 1773 
L 2963 1082 
L 352 1082 
L 352 640 
L 2963 640 
L 2963 -666 
L 3437 -666 
L 3437 640 
L 6061 640 
L 6061 1082 
L 3437 1082 
L 3437 1830 
C 3648 1856 3859 1888 4064 1926 
C 4115 1792 4173 1645 4224 1491 
L 4640 1677 
C 4486 2099 4301 2496 4090 2867 
L 3699 2739 
C 3770 2598 3840 2445 3917 2278 
C 3533 2214 3136 2157 2726 2106 
C 3187 2490 3731 3072 4346 3853 
L 3936 4019 
C 3782 3814 3635 3622 3488 3437 
L 2650 3360 
C 2880 3590 3091 3891 3277 4256 
L 5952 4256 
L 5952 4691 
L 3430 4691 
C 3341 4922 3245 5120 3142 5299 
L 2675 5222 
C 2784 5062 2880 4883 2970 4691 
L 448 4691 
z
M 1517 2765 
C 1216 2413 877 2106 506 1843 
L 813 1498 
C 1178 1766 1530 2099 1862 2509 
L 1517 2765 
z
M 883 4038 
L 563 3731 
C 947 3456 1254 3194 1472 2944 
L 1792 3264 
C 1549 3520 1242 3782 883 4038 
z
M 4896 2765 
L 4602 2483 
C 5011 2138 5331 1805 5562 1498 
L 5894 1830 
C 5626 2138 5293 2451 4896 2765 
z
M 5395 4058 
C 5146 3763 4870 3501 4563 3277 
L 4851 2944 
C 5165 3174 5466 3456 5754 3795 
L 5395 4058 
z
" transform="scale(0.015625)"/>
      <path id="PingFangHK-Regular-6052" d="M 499 3949 
C 480 3334 403 2752 262 2195 
L 666 2086 
C 794 2662 870 3277 890 3917 
L 499 3949 
z
M 2093 4173 
L 1747 4064 
C 1901 3590 2022 3091 2125 2573 
L 2496 2669 
C 2381 3232 2246 3738 2093 4173 
z
M 2483 4954 
L 2483 4512 
L 6035 4512 
L 6035 4954 
L 2483 4954 
z
M 2778 3821 
L 2778 691 
L 5722 691 
L 5722 3821 
L 2778 3821 
z
M 5286 1107 
L 3213 1107 
L 3213 2067 
L 5286 2067 
L 5286 1107 
z
M 3213 2477 
L 3213 3398 
L 5286 3398 
L 5286 2477 
L 3213 2477 
z
M 2266 -13 
L 2266 -448 
L 6138 -448 
L 6138 -13 
L 2266 -13 
z
M 1197 5274 
L 1197 -678 
L 1638 -678 
L 1638 5274 
L 1197 5274 
z
" transform="scale(0.015625)"/>
      <path id="PingFangHK-Regular-5b9a" d="M 1325 3328 
L 1325 2893 
L 3002 2893 
L 3002 102 
C 2938 115 2874 134 2816 154 
C 2355 301 1971 646 1664 1197 
C 1779 1530 1882 1894 1958 2291 
L 1510 2368 
C 1293 1267 883 390 269 -262 
L 563 -627 
C 928 -256 1235 205 1485 755 
C 1747 339 2093 32 2515 -166 
C 3078 -403 4000 -525 5293 -525 
L 6010 -525 
L 6093 -64 
C 5747 -90 5414 -102 5088 -102 
C 4448 -96 3910 -58 3462 6 
L 3462 1331 
L 5370 1331 
L 5370 1766 
L 3462 1766 
L 3462 2893 
L 5088 2893 
L 5088 3328 
L 1325 3328 
z
M 5818 4576 
L 3494 4576 
C 3405 4838 3302 5075 3200 5286 
L 2707 5210 
C 2822 5018 2931 4806 3027 4576 
L 582 4576 
L 582 3181 
L 1030 3181 
L 1030 4154 
L 5370 4154 
L 5370 3213 
L 5818 3213 
L 5818 4576 
z
" transform="scale(0.015625)"/>
     </defs>
     <use xlink:href="#PingFangHK-Regular-590d"/>
     <use xlink:href="#PingFangHK-Regular-7528" transform="translate(99.999985 0)"/>
     <use xlink:href="#PingFangHK-Regular-2c" transform="translate(199.999969 0)"/>
     <use xlink:href="#PingFangHK-Regular-6bd4" transform="translate(226.399963 0)"/>
     <use xlink:href="#PingFangHK-Regular-7387" transform="translate(326.399948 0)"/>
     <use xlink:href="#PingFangHK-Regular-6052" transform="translate(426.399933 0)"/>
     <use xlink:href="#PingFangHK-Regular-5b9a" transform="translate(526.399918 0)"/>
    </g>
   </g>
   <g id="text_18">
    <!-- 240 -->
    <g transform="translate(288.667947 188.123248) scale(0.1 -0.1)">
     <use xlink:href="#PingFangHK-Regular-32"/>
     <use xlink:href="#PingFangHK-Regular-34" transform="translate(59.999985 0)"/>
     <use xlink:href="#PingFangHK-Regular-30" transform="translate(119.999969 0)"/>
    </g>
   </g>
   <g id="text_19">
    <!-- 复用,比率变化 -->
    <g style="fill: #ffffff" transform="translate(272.611697 240.341515) scale(0.08 -0.08)">
     <defs>
      <path id="PingFangHK-Regular-53d8" d="M 4890 3866 
L 4582 3571 
C 5094 3226 5498 2893 5792 2586 
L 6112 2906 
C 5779 3226 5376 3546 4890 3866 
z
M 3264 5306 
L 2765 5229 
C 2854 5062 2938 4870 3014 4666 
L 448 4666 
L 448 4218 
L 2221 4218 
L 2221 2490 
L 2682 2490 
L 2682 4218 
L 3725 4218 
L 3725 2490 
L 4186 2490 
L 4186 4218 
L 5952 4218 
L 5952 4666 
L 3482 4666 
C 3411 4902 3341 5114 3264 5306 
z
M 1517 3846 
C 1184 3501 781 3200 294 2944 
L 576 2573 
C 1082 2854 1510 3181 1856 3546 
L 1517 3846 
z
M 883 2150 
L 883 1741 
L 1389 1741 
C 1747 1254 2208 838 2778 480 
C 2074 179 1267 -38 346 -173 
L 557 -608 
C 1581 -435 2483 -160 3251 218 
C 3987 -154 4883 -429 5939 -608 
L 6150 -186 
C 5210 -58 4390 160 3699 461 
C 4314 826 4832 1274 5254 1798 
L 5254 2150 
L 883 2150 
z
M 1901 1741 
L 4634 1741 
C 4237 1338 3770 986 3219 691 
C 2688 979 2246 1331 1901 1741 
z
" transform="scale(0.015625)"/>
      <path id="PingFangHK-Regular-5316" d="M 2208 5267 
C 1798 4262 1152 3373 256 2592 
L 403 2112 
C 736 2394 1050 2688 1331 2995 
L 1331 -653 
L 1792 -653 
L 1792 3565 
C 2138 4032 2419 4531 2643 5062 
L 2208 5267 
z
M 5165 -550 
C 5472 -550 5683 -474 5798 -326 
C 5914 -166 5990 282 6035 1018 
L 5606 1158 
C 5581 525 5536 154 5459 45 
C 5382 -58 5261 -115 5088 -115 
L 4038 -115 
C 3834 -115 3738 -13 3738 186 
L 3738 2528 
C 4442 2752 5178 3091 5952 3552 
L 5677 3930 
C 5050 3520 4403 3206 3738 2976 
L 3738 5197 
L 3277 5197 
L 3277 122 
C 3277 -326 3494 -550 3930 -550 
L 5165 -550 
z
" transform="scale(0.015625)"/>
     </defs>
     <use xlink:href="#PingFangHK-Regular-590d"/>
     <use xlink:href="#PingFangHK-Regular-7528" transform="translate(99.999985 0)"/>
     <use xlink:href="#PingFangHK-Regular-2c" transform="translate(199.999969 0)"/>
     <use xlink:href="#PingFangHK-Regular-6bd4" transform="translate(226.399963 0)"/>
     <use xlink:href="#PingFangHK-Regular-7387" transform="translate(326.399948 0)"/>
     <use xlink:href="#PingFangHK-Regular-53d8" transform="translate(426.399933 0)"/>
     <use xlink:href="#PingFangHK-Regular-5316" transform="translate(526.399918 0)"/>
    </g>
    <!-- (最优) -->
    <g style="fill: #ffffff" transform="translate(287.004197 248.991765) scale(0.08 -0.08)">
     <defs>
      <path id="PingFangHK-Regular-6700" d="M 384 2746 
L 384 2349 
L 973 2349 
L 973 115 
C 787 102 595 96 390 83 
L 448 -314 
C 1395 -250 2150 -166 2701 -70 
L 2701 -653 
L 3149 -653 
L 3149 2349 
L 6029 2349 
L 6029 2746 
L 384 2746 
z
M 1408 147 
L 1408 717 
L 2701 717 
L 2701 301 
C 2330 237 1894 186 1408 147 
z
M 1408 1056 
L 1408 1536 
L 2701 1536 
L 2701 1056 
L 1408 1056 
z
M 1408 1882 
L 1408 2349 
L 2701 2349 
L 2701 1882 
L 1408 1882 
z
M 3686 1555 
C 3808 1101 4038 691 4384 326 
C 4090 83 3731 -122 3309 -288 
L 3546 -653 
C 3994 -474 4378 -243 4698 32 
C 4998 -224 5370 -454 5811 -659 
L 6048 -275 
C 5638 -102 5286 96 4992 320 
C 5306 672 5530 1088 5658 1574 
L 5658 1939 
L 3488 1939 
L 3488 1555 
L 3686 1555 
z
M 4672 595 
C 4390 877 4198 1197 4083 1555 
L 5235 1555 
C 5120 1203 4934 883 4672 595 
z
M 5229 4998 
L 1203 4998 
L 1203 3066 
L 1651 3066 
L 1651 4640 
L 4781 4640 
L 4781 3085 
L 5229 3085 
L 5229 4998 
z
M 1914 4218 
L 1914 3891 
L 4525 3891 
L 4525 4218 
L 1914 4218 
z
M 1901 3520 
L 1901 3200 
L 4538 3200 
L 4538 3520 
L 1901 3520 
z
" transform="scale(0.015625)"/>
      <path id="PingFangHK-Regular-4f18" d="M 1107 2995 
L 1107 -640 
L 1568 -640 
L 1568 3706 
C 1798 4115 1997 4557 2150 5018 
L 1734 5210 
C 1427 4230 928 3360 243 2605 
L 378 2144 
C 646 2413 890 2701 1107 2995 
z
M 2029 3667 
L 2029 3219 
L 3322 3219 
C 3181 1632 2682 454 1824 -326 
L 2163 -621 
C 3085 230 3622 1510 3763 3219 
L 5939 3219 
L 5939 3667 
L 3789 3667 
C 3795 3795 3802 3923 3802 4051 
L 3802 5210 
L 3360 5210 
L 3360 4051 
C 3360 3923 3354 3795 3347 3667 
L 2029 3667 
z
M 5478 -538 
C 5645 -531 5779 -467 5875 -352 
C 5971 -218 6042 179 6086 845 
L 5670 979 
C 5651 410 5613 77 5555 -13 
C 5504 -77 5440 -115 5363 -115 
L 4832 -115 
C 4672 -115 4595 -38 4595 102 
L 4595 2835 
L 4154 2835 
L 4154 19 
C 4154 -352 4339 -538 4710 -538 
L 5478 -538 
z
M 4640 5133 
L 4339 4845 
C 4774 4525 5120 4218 5370 3930 
L 5683 4243 
C 5402 4544 5056 4838 4640 5133 
z
" transform="scale(0.015625)"/>
     </defs>
     <use xlink:href="#PingFangHK-Regular-28"/>
     <use xlink:href="#PingFangHK-Regular-6700" transform="translate(33.299988 0)"/>
     <use xlink:href="#PingFangHK-Regular-4f18" transform="translate(133.299973 0)"/>
     <use xlink:href="#PingFangHK-Regular-29" transform="translate(233.299957 0)"/>
    </g>
   </g>
   <g id="text_20">
    <!-- 151 -->
    <g transform="translate(382.672678 230.445889) scale(0.1 -0.1)">
     <use xlink:href="#PingFangHK-Regular-31"/>
     <use xlink:href="#PingFangHK-Regular-35" transform="translate(40.099991 0)"/>
     <use xlink:href="#PingFangHK-Regular-31" transform="translate(100.099976 0)"/>
    </g>
   </g>
   <g id="text_21">
    <!-- 用曲率 -->
    <g style="fill: #ffffff" transform="translate(377.682053 270.153086) scale(0.08 -0.08)">
     <defs>
      <path id="PingFangHK-Regular-66f2" d="M 5670 4128 
L 4147 4128 
L 4147 5242 
L 3686 5242 
L 3686 4128 
L 2694 4128 
L 2694 5242 
L 2234 5242 
L 2234 4128 
L 730 4128 
L 730 -627 
L 1171 -627 
L 1171 -301 
L 5229 -301 
L 5229 -627 
L 5670 -627 
L 5670 4128 
z
M 1171 141 
L 1171 1773 
L 2234 1773 
L 2234 141 
L 1171 141 
z
M 2694 1773 
L 3686 1773 
L 3686 141 
L 2694 141 
L 2694 1773 
z
M 4147 1773 
L 5229 1773 
L 5229 141 
L 4147 141 
L 4147 1773 
z
M 1171 2208 
L 1171 3680 
L 2234 3680 
L 2234 2208 
L 1171 2208 
z
M 2694 3680 
L 3686 3680 
L 3686 2208 
L 2694 2208 
L 2694 3680 
z
M 4147 3680 
L 5229 3680 
L 5229 2208 
L 4147 2208 
L 4147 3680 
z
" transform="scale(0.015625)"/>
     </defs>
     <use xlink:href="#PingFangHK-Regular-7528"/>
     <use xlink:href="#PingFangHK-Regular-66f2" transform="translate(99.999985 0)"/>
     <use xlink:href="#PingFangHK-Regular-7387" transform="translate(199.999969 0)"/>
    </g>
   </g>
   <g id="text_22">
    <!-- 136 -->
    <g transform="translate(473.691472 237.578918) scale(0.1 -0.1)">
     <use xlink:href="#PingFangHK-Regular-31"/>
     <use xlink:href="#PingFangHK-Regular-33" transform="translate(40.099991 0)"/>
     <use xlink:href="#PingFangHK-Regular-36" transform="translate(100.099976 0)"/>
    </g>
   </g>
   <g id="text_23">
    <!-- 曲率+兜底 -->
    <g style="fill: #ffffff" transform="translate(463.27616 273.7196) scale(0.08 -0.08)">
     <defs>
      <path id="PingFangHK-Regular-2b" d="M 1722 3270 
L 1722 1875 
L 320 1875 
L 320 1440 
L 1722 1440 
L 1722 38 
L 2157 38 
L 2157 1440 
L 3552 1440 
L 3552 1875 
L 2157 1875 
L 2157 3270 
L 1722 3270 
z
" transform="scale(0.015625)"/>
      <path id="PingFangHK-Regular-515c" d="M 2157 4640 
L 2157 2022 
L 4250 2022 
L 4250 4640 
L 3251 4640 
C 3341 4813 3405 4992 3456 5184 
L 2982 5248 
C 2938 5043 2867 4838 2778 4640 
L 2157 4640 
z
M 3814 2426 
L 2592 2426 
L 2592 3142 
L 3814 3142 
L 3814 2426 
z
M 2592 3526 
L 2592 4230 
L 3814 4230 
L 3814 3526 
L 2592 3526 
z
M 5754 1939 
L 5754 4736 
L 4518 4736 
L 4518 4320 
L 5318 4320 
L 5318 2355 
L 4518 2355 
L 4518 1939 
L 5754 1939 
z
M 5293 -499 
C 5536 -499 5715 -442 5824 -333 
C 5952 -205 6042 154 6086 742 
L 5651 883 
C 5626 422 5574 147 5504 58 
C 5446 -19 5350 -58 5210 -58 
L 4416 -58 
C 4224 -58 4134 32 4134 211 
L 4134 1683 
L 3680 1683 
L 3680 115 
C 3680 -294 3878 -499 4275 -499 
L 5293 -499 
z
M 2214 1677 
L 2214 1478 
C 2195 1043 2061 685 1805 416 
C 1530 147 1043 -64 346 -224 
L 602 -627 
C 1318 -448 1837 -205 2157 109 
C 2477 454 2650 909 2669 1478 
L 2669 1677 
L 2214 1677 
z
M 1146 4314 
C 1466 4390 1747 4512 1978 4672 
L 1747 5050 
C 1434 4845 1088 4717 717 4666 
L 717 1933 
L 1862 1933 
L 1862 2355 
L 1146 2355 
L 1146 4314 
z
" transform="scale(0.015625)"/>
      <path id="PingFangHK-Regular-5e95" d="M 2432 1901 
L 4006 1901 
C 4038 1626 4083 1382 4147 1171 
C 4301 621 4486 198 4704 -90 
C 4915 -371 5133 -512 5350 -512 
C 5517 -512 5664 -390 5798 -147 
C 5907 58 6010 314 6099 614 
L 5715 864 
C 5581 282 5453 -19 5325 -38 
C 5197 -32 5056 96 4902 346 
C 4755 602 4627 979 4525 1466 
C 4499 1600 4474 1747 4448 1901 
L 5792 1901 
L 5792 2336 
L 4403 2336 
C 4378 2624 4358 2944 4358 3302 
C 4819 3366 5254 3443 5677 3526 
L 5440 3904 
C 4352 3686 3194 3546 1978 3475 
L 1978 915 
C 1978 813 1926 736 1824 698 
L 1926 282 
C 2662 410 3302 531 3840 646 
L 3763 1075 
C 3328 973 2880 890 2432 813 
L 2432 1901 
z
M 3955 2336 
L 2432 2336 
L 2432 3110 
C 2938 3149 3430 3194 3910 3245 
C 3910 2918 3930 2618 3955 2336 
z
M 3373 5248 
L 2893 5171 
C 3008 5018 3110 4845 3206 4653 
L 838 4653 
L 838 2752 
C 826 1446 640 429 288 -301 
L 634 -608 
C 1056 237 1274 1357 1299 2752 
L 1299 4205 
L 6035 4205 
L 6035 4653 
L 3680 4653 
C 3578 4870 3475 5069 3373 5248 
z
M 1869 -64 
L 1869 -493 
L 4192 -493 
L 4192 -64 
L 1869 -64 
z
" transform="scale(0.015625)"/>
     </defs>
     <use xlink:href="#PingFangHK-Regular-66f2"/>
     <use xlink:href="#PingFangHK-Regular-7387" transform="translate(99.999985 0)"/>
     <use xlink:href="#PingFangHK-Regular-2b" transform="translate(199.999969 0)"/>
     <use xlink:href="#PingFangHK-Regular-515c" transform="translate(260.499954 0)"/>
     <use xlink:href="#PingFangHK-Regular-5e95" transform="translate(360.499939 0)"/>
    </g>
   </g>
   <g id="text_24">
    <!-- 120 -->
    <g transform="translate(565.705579 245.187483) scale(0.1 -0.1)">
     <use xlink:href="#PingFangHK-Regular-31"/>
     <use xlink:href="#PingFangHK-Regular-32" transform="translate(40.099991 0)"/>
     <use xlink:href="#PingFangHK-Regular-30" transform="translate(100.099976 0)"/>
    </g>
   </g>
   <g id="text_25">
    <!-- 需梯度 -->
    <g style="fill: #ffffff" transform="translate(561.710266 277.523883) scale(0.08 -0.08)">
     <defs>
      <path id="PingFangHK-Regular-68af" d="M 1658 2586 
C 1811 2310 1984 1958 2189 1530 
L 2445 1914 
C 2176 2355 1914 2752 1658 3110 
L 1658 3533 
L 2342 3533 
L 2342 3974 
L 1658 3974 
L 1658 5216 
L 1203 5216 
L 1203 3974 
L 378 3974 
L 378 3533 
L 1203 3533 
L 1203 3494 
C 1005 2746 685 2074 243 1472 
L 435 992 
C 742 1472 998 2003 1203 2586 
L 1203 -627 
L 1658 -627 
L 1658 2586 
z
M 3994 3750 
L 3994 2976 
L 2848 2976 
L 2586 1446 
L 3949 1446 
C 3578 851 2995 358 2189 -26 
L 2432 -422 
C 3098 -38 3622 422 3994 973 
L 3994 -646 
L 4442 -646 
L 4442 1446 
L 5536 1446 
C 5536 1005 5517 704 5485 538 
C 5446 358 5350 262 5197 262 
C 5056 262 4909 275 4742 288 
L 4858 -134 
C 4986 -134 5126 -141 5267 -141 
C 5562 -134 5747 -6 5837 237 
C 5914 454 5958 986 5958 1837 
L 4442 1837 
L 4442 2579 
L 5760 2579 
L 5760 4160 
L 4819 4160 
C 5037 4448 5216 4774 5370 5133 
L 4928 5254 
C 4755 4832 4557 4467 4326 4160 
L 2637 4160 
L 2637 3750 
L 3994 3750 
z
M 3994 2579 
L 3994 1837 
L 3053 1837 
L 3200 2579 
L 3994 2579 
z
M 4442 2976 
L 4442 3750 
L 5350 3750 
L 5350 2976 
L 4442 2976 
z
M 3366 5197 
L 2950 5062 
C 3149 4806 3328 4518 3494 4186 
L 3885 4358 
C 3738 4653 3565 4934 3366 5197 
z
" transform="scale(0.015625)"/>
      <path id="PingFangHK-Regular-5ea6" d="M 1670 1709 
L 1670 1312 
L 2061 1312 
C 2355 909 2746 557 3219 262 
C 2643 19 1978 -154 1235 -262 
L 1434 -666 
C 2278 -525 3027 -294 3674 13 
C 4282 -294 5030 -518 5914 -666 
L 6112 -269 
C 5350 -166 4685 6 4109 250 
C 4627 557 5062 934 5421 1370 
L 5421 1709 
L 1670 1709 
z
M 2547 1312 
L 4819 1312 
C 4486 986 4096 704 3648 467 
C 3206 698 2842 979 2547 1312 
z
M 1299 3142 
L 2374 3142 
L 2374 2144 
L 4966 2144 
L 4966 3142 
L 5952 3142 
L 5952 3565 
L 4966 3565 
L 4966 4090 
L 4518 4090 
L 4518 3565 
L 2822 3565 
L 2822 4083 
L 2374 4083 
L 2374 3565 
L 1299 3565 
L 1299 4294 
L 5965 4294 
L 5965 4730 
L 3770 4730 
C 3699 4922 3622 5101 3546 5261 
L 3059 5184 
C 3149 5043 3226 4896 3302 4730 
L 838 4730 
L 838 2643 
C 826 1382 634 397 262 -314 
L 608 -621 
C 1043 198 1274 1286 1299 2643 
L 1299 3142 
z
M 2822 3142 
L 4518 3142 
L 4518 2534 
L 2822 2534 
L 2822 3142 
z
" transform="scale(0.015625)"/>
     </defs>
     <use xlink:href="#PingFangHK-Regular-9700"/>
     <use xlink:href="#PingFangHK-Regular-68af" transform="translate(99.999985 0)"/>
     <use xlink:href="#PingFangHK-Regular-5ea6" transform="translate(199.999969 0)"/>
    </g>
   </g>
   <g id="text_26">
    <!-- 一维查找方法总开销对比（全部收敛正确） -->
    <g transform="translate(229.675 20.44125) scale(0.12 -0.12)">
     <defs>
      <path id="PingFangHK-Regular-4e00" d="M 320 2579 
L 320 2118 
L 6074 2118 
L 6074 2579 
L 320 2579 
z
" transform="scale(0.015625)"/>
      <path id="PingFangHK-Regular-7ef4" d="M 2528 640 
C 1894 397 1152 205 307 64 
L 365 -397 
C 1171 -243 1894 -45 2528 198 
L 2528 640 
z
M 1370 5248 
C 1133 4493 858 3821 538 3232 
C 480 3149 416 3091 346 3059 
L 461 2637 
C 806 2694 1146 2758 1478 2822 
C 1158 2208 883 1766 659 1510 
C 602 1459 531 1414 448 1382 
L 576 960 
C 1152 1056 1754 1235 2381 1491 
L 2381 1914 
C 1958 1728 1542 1587 1120 1485 
C 1472 1958 1914 2746 2451 3846 
L 2048 4000 
C 1926 3738 1811 3488 1696 3245 
C 1427 3187 1158 3142 896 3104 
C 1203 3597 1510 4256 1811 5075 
L 1370 5248 
z
M 3424 2400 
L 4557 2400 
L 4557 1530 
L 3424 1530 
L 3424 2400 
z
M 3424 1107 
L 4557 1107 
L 4557 134 
L 3424 134 
L 3424 1107 
z
M 3424 -294 
L 6150 -294 
L 6150 134 
L 5005 134 
L 5005 1107 
L 5914 1107 
L 5914 1530 
L 5005 1530 
L 5005 2400 
L 5914 2400 
L 5914 2829 
L 5005 2829 
L 5005 3699 
L 6022 3699 
L 6022 4134 
L 4864 4134 
L 5037 4198 
C 4954 4518 4838 4864 4698 5248 
L 4250 5126 
C 4390 4806 4512 4474 4614 4134 
L 3450 4134 
C 3578 4454 3680 4781 3770 5126 
L 3328 5216 
C 3117 4320 2758 3501 2253 2746 
L 2394 2278 
C 2605 2560 2797 2848 2976 3155 
L 2976 -627 
L 3424 -627 
L 3424 -294 
z
M 4557 3699 
L 4557 2829 
L 3424 2829 
L 3424 3699 
L 4557 3699 
z
" transform="scale(0.015625)"/>
      <path id="PingFangHK-Regular-67e5" d="M 1299 2829 
L 1299 474 
L 5126 474 
L 5126 2829 
L 3437 2829 
L 3437 3686 
C 4250 3430 5043 3130 5811 2797 
L 6106 3130 
C 5312 3450 4422 3744 3437 4013 
L 3437 4230 
L 5843 4230 
L 5843 4653 
L 3437 4653 
L 3437 5242 
L 2989 5242 
L 2989 4653 
L 582 4653 
L 582 4230 
L 2592 4230 
C 2093 3782 1325 3405 288 3110 
L 531 2701 
C 1658 3098 2477 3610 2976 4230 
L 2989 4230 
L 2989 2829 
L 1299 2829 
z
M 4678 883 
L 1747 883 
L 1747 1446 
L 4678 1446 
L 4678 883 
z
M 1747 1837 
L 1747 2419 
L 4678 2419 
L 4678 1837 
L 1747 1837 
z
M 454 -26 
L 454 -454 
L 5952 -454 
L 5952 -26 
L 454 -26 
z
" transform="scale(0.015625)"/>
      <path id="PingFangHK-Regular-627e" d="M 5747 3949 
L 3802 3590 
C 3763 4077 3744 4627 3744 5229 
L 3277 5229 
C 3277 4589 3302 4019 3347 3507 
L 2477 3347 
L 2547 2899 
L 3392 3059 
C 3443 2592 3514 2189 3603 1843 
C 3667 1587 3744 1350 3827 1126 
C 3392 787 2893 518 2342 326 
L 2592 -64 
C 3104 128 3578 378 4000 691 
C 4109 442 4230 224 4358 38 
C 4653 -371 4947 -576 5242 -576 
C 5427 -576 5594 -422 5741 -122 
C 5856 128 5971 442 6074 813 
L 5664 1069 
C 5510 333 5357 -51 5216 -77 
C 5024 -70 4806 122 4563 493 
C 4486 627 4416 787 4339 966 
C 4864 1434 5306 2010 5664 2701 
L 5267 2912 
C 4973 2336 4608 1843 4179 1434 
C 4109 1651 4045 1894 3987 2157 
C 3923 2451 3878 2778 3840 3142 
L 5818 3507 
L 5747 3949 
z
M 2438 2701 
C 2182 2560 1926 2432 1658 2317 
L 1658 3610 
L 2419 3610 
L 2419 4051 
L 1658 4051 
L 1658 5210 
L 1190 5210 
L 1190 4051 
L 320 4051 
L 320 3610 
L 1190 3610 
L 1190 2131 
C 877 2016 557 1920 237 1837 
L 358 1357 
C 640 1446 915 1542 1190 1651 
L 1190 83 
C 1190 -90 1101 -179 934 -179 
C 781 -179 614 -166 442 -147 
L 544 -602 
L 1094 -602 
C 1466 -602 1658 -410 1658 -32 
L 1658 1850 
C 1920 1965 2182 2086 2438 2227 
L 2438 2701 
z
M 4704 5222 
L 4294 5030 
C 4512 4781 4710 4499 4896 4186 
L 5312 4390 
C 5120 4691 4922 4966 4704 5222 
z
" transform="scale(0.015625)"/>
      <path id="PingFangHK-Regular-65b9" d="M 416 4282 
L 416 3840 
L 2202 3840 
C 2195 3622 2182 3315 2163 2912 
C 2131 2304 2010 1754 1792 1261 
C 1568 768 1114 237 435 -339 
L 768 -659 
C 1331 -205 1766 294 2080 845 
C 2310 1267 2470 1734 2554 2253 
L 4794 2253 
C 4781 1370 4762 787 4723 518 
C 4646 70 4448 -160 4122 -173 
C 3898 -173 3622 -166 3290 -154 
L 3430 -570 
C 3712 -582 3962 -595 4166 -595 
C 4672 -576 4986 -294 5114 250 
C 5197 608 5248 1421 5261 2688 
L 2605 2688 
L 2605 2701 
L 2662 3840 
L 6035 3840 
L 6035 4282 
L 3642 4282 
C 3488 4659 3322 4986 3142 5254 
L 2707 5094 
C 2893 4838 3046 4563 3174 4282 
L 416 4282 
z
" transform="scale(0.015625)"/>
      <path id="PingFangHK-Regular-6cd5" d="M 3725 5229 
L 3725 4198 
L 2208 4198 
L 2208 3750 
L 3725 3750 
L 3725 2554 
L 1901 2554 
L 1901 2106 
L 3418 2106 
C 2931 960 2534 256 2234 -6 
C 2208 -19 2176 -38 2138 -51 
L 2246 -454 
C 3379 -346 4429 -198 5395 -19 
C 5485 -224 5568 -435 5658 -659 
L 6093 -467 
C 5805 262 5466 954 5082 1594 
L 4640 1446 
C 4832 1126 5024 774 5210 390 
C 4416 237 3629 115 2842 32 
C 3149 435 3507 1126 3917 2106 
L 6016 2106 
L 6016 2554 
L 4198 2554 
L 4198 3750 
L 5843 3750 
L 5843 4198 
L 4198 4198 
L 4198 5229 
L 3725 5229 
z
M 819 5126 
L 493 4813 
C 941 4474 1286 4154 1542 3846 
L 1869 4179 
C 1587 4499 1235 4813 819 5126 
z
M 666 3629 
L 339 3315 
C 749 2970 1069 2650 1299 2349 
L 1632 2675 
C 1370 2995 1050 3315 666 3629 
z
M 1402 1856 
C 1133 1088 806 339 435 -390 
L 896 -589 
C 1235 122 1542 883 1818 1690 
L 1402 1856 
z
" transform="scale(0.015625)"/>
      <path id="PingFangHK-Regular-603b" d="M 1184 4102 
L 1184 2016 
L 5216 2016 
L 5216 4102 
L 4147 4102 
C 4358 4384 4563 4730 4768 5139 
L 4326 5299 
C 4141 4870 3917 4474 3648 4102 
L 1184 4102 
z
M 4755 2451 
L 1645 2451 
L 1645 3667 
L 4755 3667 
L 4755 2451 
z
M 1971 5274 
L 1581 5082 
C 1824 4800 2054 4486 2272 4128 
L 2662 4320 
C 2445 4666 2214 4986 1971 5274 
z
M 915 1485 
C 781 909 570 378 275 -102 
L 666 -352 
C 960 134 1190 717 1357 1389 
L 915 1485 
z
M 3328 1760 
L 2925 1626 
C 3142 1299 3341 928 3520 506 
L 3942 691 
C 3770 1075 3565 1427 3328 1760 
z
M 5344 1606 
L 4902 1466 
C 5184 998 5440 461 5670 -154 
L 6093 32 
C 5882 595 5632 1120 5344 1606 
z
M 4115 -557 
C 4358 -557 4538 -506 4653 -403 
C 4781 -269 4870 90 4915 666 
L 4474 806 
C 4448 358 4403 90 4326 -6 
C 4269 -83 4173 -122 4032 -122 
L 2624 -122 
C 2438 -122 2349 -19 2349 179 
L 2349 1427 
L 1882 1427 
L 1882 83 
C 1882 -339 2080 -557 2483 -557 
L 4115 -557 
z
" transform="scale(0.015625)"/>
      <path id="PingFangHK-Regular-5f00" d="M 717 4845 
L 717 4397 
L 1882 4397 
L 1882 2925 
C 1882 2861 1875 2784 1875 2701 
L 371 2701 
L 371 2259 
L 1850 2259 
C 1798 1747 1709 1312 1574 941 
C 1370 454 1005 64 486 -230 
L 736 -627 
C 1299 -333 1702 83 1946 621 
C 2138 1056 2259 1600 2317 2259 
L 4166 2259 
L 4166 -576 
L 4634 -576 
L 4634 2259 
L 6035 2259 
L 6035 2701 
L 4634 2701 
L 4634 4397 
L 5702 4397 
L 5702 4845 
L 717 4845 
z
M 2355 4397 
L 4166 4397 
L 4166 2701 
L 2349 2701 
C 2349 2771 2355 2848 2355 2925 
L 2355 4397 
z
" transform="scale(0.015625)"/>
      <path id="PingFangHK-Regular-9500" d="M 4192 5210 
L 4192 3437 
L 2976 3437 
L 2976 -621 
L 3437 -621 
L 3437 794 
L 5389 794 
L 5389 122 
C 5389 -77 5306 -179 5146 -179 
L 4531 -160 
L 4653 -602 
L 5293 -602 
C 5664 -602 5850 -390 5850 19 
L 5850 3437 
L 4646 3437 
L 4646 5210 
L 4192 5210 
z
M 3437 1894 
L 5389 1894 
L 5389 1190 
L 3437 1190 
L 3437 1894 
z
M 5389 2291 
L 3437 2291 
L 3437 3002 
L 5389 3002 
L 5389 2291 
z
M 3200 4966 
L 2810 4781 
C 3027 4467 3226 4109 3411 3706 
L 3782 3891 
C 3597 4282 3405 4640 3200 4966 
z
M 5632 5024 
C 5478 4653 5280 4282 5024 3898 
L 5402 3706 
C 5651 4077 5856 4454 6016 4845 
L 5632 5024 
z
M 1107 5216 
C 928 4448 640 3744 243 3104 
L 621 2867 
C 851 3226 1050 3629 1222 4070 
L 2547 4070 
L 2547 4506 
L 1376 4506 
C 1440 4704 1498 4909 1555 5126 
L 1107 5216 
z
M 915 3213 
L 915 2797 
L 1325 2797 
L 1325 1990 
L 442 1990 
L 442 1562 
L 1325 1562 
L 1325 102 
C 1325 19 1261 -45 1133 -90 
L 1325 -486 
C 1856 -346 2323 -160 2726 64 
L 2650 474 
C 2355 301 2061 160 1773 58 
L 1773 1562 
L 2656 1562 
L 2656 1990 
L 1773 1990 
L 1773 2797 
L 2438 2797 
L 2438 3213 
L 915 3213 
z
" transform="scale(0.015625)"/>
      <path id="PingFangHK-Regular-5bf9" d="M 3053 3987 
L 3053 3546 
L 4909 3546 
L 4909 141 
C 4909 -83 4787 -198 4550 -198 
C 4256 -198 3942 -186 3610 -166 
L 3706 -621 
L 4710 -621 
C 5146 -621 5370 -403 5370 26 
L 5370 3546 
L 6080 3546 
L 6080 3987 
L 5370 3987 
L 5370 5242 
L 4909 5242 
L 4909 3987 
L 3053 3987 
z
M 762 3571 
L 454 3283 
C 902 2784 1312 2291 1670 1811 
C 1338 1184 870 640 269 179 
L 538 -224 
C 1126 262 1600 813 1952 1427 
C 2182 1101 2394 781 2586 461 
L 2918 794 
C 2694 1152 2445 1517 2176 1875 
C 2509 2586 2688 3379 2720 4250 
L 2720 4589 
L 550 4589 
L 550 4141 
L 2304 4141 
C 2259 3462 2118 2835 1882 2259 
C 1536 2694 1165 3136 762 3571 
z
M 3398 2790 
L 3046 2534 
C 3443 2042 3770 1574 4026 1133 
L 4390 1389 
C 4160 1798 3827 2266 3398 2790 
z
" transform="scale(0.015625)"/>
      <path id="PingFangHK-Regular-5168" d="M 1440 3072 
L 1440 2733 
L 2970 2733 
L 2970 1606 
L 1107 1606 
L 1107 1165 
L 2970 1165 
L 2970 6 
L 570 6 
L 570 -448 
L 5869 -448 
L 5869 6 
L 3437 6 
L 3437 1165 
L 5286 1165 
L 5286 1606 
L 3437 1606 
L 3437 2733 
L 4928 2733 
L 4928 3155 
C 5197 3014 5485 2874 5805 2746 
L 6112 3162 
C 4845 3629 3962 4250 3450 5024 
L 1562 5024 
L 1562 4608 
L 2784 4608 
C 2246 3981 1402 3469 250 3066 
L 512 2637 
C 845 2771 1152 2918 1440 3072 
z
M 4896 3174 
L 1619 3174 
C 2310 3578 2848 4038 3226 4563 
C 3635 4032 4192 3571 4896 3174 
z
" transform="scale(0.015625)"/>
      <path id="PingFangHK-Regular-90e8" d="M 3846 4973 
L 3846 -627 
L 4294 -627 
L 4294 4544 
L 5466 4544 
C 5248 3853 5018 3258 4787 2746 
C 5318 2106 5587 1594 5594 1203 
C 5587 992 5549 851 5485 774 
C 5414 704 5261 666 5024 653 
C 4902 653 4755 666 4582 685 
L 4723 198 
C 5261 198 5619 275 5798 429 
C 5965 570 6048 832 6048 1203 
C 6042 1600 5786 2118 5280 2746 
C 5523 3322 5754 3949 5965 4627 
L 5965 4973 
L 3846 4973 
z
M 435 4589 
L 435 4147 
L 768 4147 
C 915 3738 1043 3302 1146 2835 
L 326 2835 
L 326 2394 
L 3494 2394 
L 3494 2835 
L 2694 2835 
C 2861 3219 3008 3661 3136 4147 
L 3443 4147 
L 3443 4589 
L 2144 4589 
C 2080 4838 2010 5062 1946 5261 
L 1478 5184 
C 1555 5005 1626 4806 1696 4589 
L 435 4589 
z
M 2266 2835 
L 1581 2835 
C 1466 3334 1344 3770 1216 4147 
L 2688 4147 
C 2566 3686 2426 3251 2266 2835 
z
M 3194 1779 
L 704 1779 
L 704 -627 
L 1152 -627 
L 1152 -282 
L 2739 -282 
L 2739 -627 
L 3194 -627 
L 3194 1779 
z
M 1152 154 
L 1152 1338 
L 2739 1338 
L 2739 154 
L 1152 154 
z
" transform="scale(0.015625)"/>
      <path id="PingFangHK-Regular-6536" d="M 582 627 
C 1062 755 1523 896 1971 1050 
L 1971 -602 
L 2426 -602 
L 2426 5197 
L 1971 5197 
L 1971 1498 
C 1664 1376 1350 1267 1030 1171 
L 1030 4653 
L 582 4653 
L 582 1178 
C 582 1107 531 1056 442 1018 
L 582 627 
z
M 3725 3802 
L 5024 3802 
C 4986 2918 4781 2150 4397 1491 
C 4109 1933 3872 2413 3693 2925 
L 3315 2714 
C 3514 2125 3782 1581 4122 1075 
C 3725 557 3194 128 2522 -205 
L 2784 -621 
C 3437 -269 3981 173 4403 698 
C 4794 192 5267 -262 5824 -672 
L 6131 -307 
C 5568 102 5082 563 4685 1088 
C 5158 1843 5421 2746 5466 3802 
L 5997 3802 
L 5997 4256 
L 3878 4256 
C 3962 4538 4032 4845 4096 5171 
L 3635 5248 
C 3456 4186 3104 3334 2592 2701 
L 2880 2349 
C 3219 2739 3501 3226 3725 3802 
z
" transform="scale(0.015625)"/>
      <path id="PingFangHK-Regular-655b" d="M 4179 3795 
L 5229 3795 
C 5203 2899 5030 2118 4710 1459 
C 4435 2010 4211 2662 4045 3418 
C 4090 3533 4134 3661 4179 3795 
z
M 4480 1043 
C 4134 506 3667 58 3072 -288 
L 3315 -672 
C 3878 -326 4346 109 4717 634 
C 5056 83 5459 -352 5926 -678 
L 6189 -294 
C 5709 19 5299 454 4960 1018 
C 5389 1773 5619 2701 5658 3795 
L 6022 3795 
L 6022 4237 
L 4307 4237 
C 4384 4531 4454 4838 4506 5165 
L 4051 5242 
C 3898 4160 3610 3302 3174 2669 
L 3443 2336 
C 3565 2496 3680 2675 3789 2867 
C 3968 2176 4198 1568 4480 1043 
z
M 3334 595 
C 3110 531 2874 461 2630 390 
C 2835 1011 3002 1709 3142 2490 
L 2726 2605 
C 2573 1683 2400 909 2202 282 
C 1677 154 1126 32 538 -77 
L 659 -499 
C 1683 -294 2573 -70 3334 173 
L 3334 595 
z
M 896 2323 
L 506 2189 
C 723 1645 909 1075 1056 486 
L 1446 582 
C 1280 1235 1101 1818 896 2323 
z
M 1779 2611 
L 1382 2483 
C 1562 1971 1715 1440 1830 883 
L 2202 979 
C 2074 1594 1933 2138 1779 2611 
z
M 1024 3334 
L 1024 2912 
L 2899 2912 
L 2899 3334 
L 1024 3334 
z
M 1754 5171 
C 1344 4442 832 3770 218 3155 
L 480 2790 
C 1107 3443 1600 4090 1958 4730 
C 2266 4422 2675 3955 3181 3322 
L 3456 3686 
C 2970 4275 2509 4768 2086 5171 
L 1754 5171 
z
" transform="scale(0.015625)"/>
      <path id="PingFangHK-Regular-6b63" d="M 3149 4442 
L 3149 90 
L 1805 90 
L 1805 3162 
L 1357 3162 
L 1357 90 
L 352 90 
L 352 -358 
L 6054 -358 
L 6054 90 
L 3616 90 
L 3616 2138 
L 5459 2138 
L 5459 2579 
L 3616 2579 
L 3616 4442 
L 5786 4442 
L 5786 4896 
L 730 4896 
L 730 4442 
L 3149 4442 
z
" transform="scale(0.015625)"/>
      <path id="PingFangHK-Regular-786e" d="M 3360 2112 
L 4186 2112 
L 4186 1293 
L 3354 1293 
C 3354 1338 3360 1382 3360 1434 
L 3360 2112 
z
M 3315 890 
L 5446 890 
L 5446 102 
C 5446 -64 5382 -147 5261 -147 
C 5094 -147 4915 -141 4723 -128 
L 4832 -538 
L 5395 -538 
C 5715 -538 5882 -371 5882 -51 
L 5882 3712 
L 4832 3712 
C 5018 3904 5203 4147 5389 4429 
L 5389 4755 
L 3853 4755 
C 3917 4883 3981 5011 4045 5146 
L 3603 5242 
C 3277 4576 2861 4032 2349 3622 
L 2643 3270 
C 2733 3347 2829 3437 2931 3533 
L 2931 1408 
C 2918 710 2726 134 2349 -320 
L 2682 -621 
C 3021 -218 3232 288 3315 890 
z
M 4333 3712 
L 3104 3712 
C 3283 3910 3456 4128 3616 4365 
L 4858 4365 
C 4685 4122 4512 3904 4333 3712 
z
M 5446 1293 
L 4602 1293 
L 4602 2112 
L 5446 2112 
L 5446 1293 
z
M 5446 2522 
L 4602 2522 
L 4602 3302 
L 5446 3302 
L 5446 2522 
z
M 4186 3302 
L 4186 2522 
L 3360 2522 
L 3360 3302 
L 4186 3302 
z
M 1158 4422 
C 1005 3494 704 2669 250 1952 
L 512 1523 
C 627 1702 742 1888 851 2086 
L 851 -429 
L 1286 -429 
L 1286 58 
L 2400 58 
L 2400 2970 
L 1242 2970 
C 1402 3418 1523 3904 1600 4422 
L 2566 4422 
L 2566 4870 
L 429 4870 
L 429 4422 
L 1158 4422 
z
M 1286 474 
L 1286 2547 
L 1984 2547 
L 1984 474 
L 1286 474 
z
" transform="scale(0.015625)"/>
     </defs>
     <use xlink:href="#PingFangHK-Regular-4e00"/>
     <use xlink:href="#PingFangHK-Regular-7ef4" transform="translate(99.999985 0)"/>
     <use xlink:href="#PingFangHK-Regular-67e5" transform="translate(199.999969 0)"/>
     <use xlink:href="#PingFangHK-Regular-627e" transform="translate(299.999954 0)"/>
     <use xlink:href="#PingFangHK-Regular-65b9" transform="translate(399.999939 0)"/>
     <use xlink:href="#PingFangHK-Regular-6cd5" transform="translate(499.999924 0)"/>
     <use xlink:href="#PingFangHK-Regular-603b" transform="translate(599.999908 0)"/>
     <use xlink:href="#PingFangHK-Regular-5f00" transform="translate(699.999893 0)"/>
     <use xlink:href="#PingFangHK-Regular-9500" transform="translate(799.999878 0)"/>
     <use xlink:href="#PingFangHK-Regular-5bf9" transform="translate(899.999863 0)"/>
     <use xlink:href="#PingFangHK-Regular-6bd4" transform="translate(999.999847 0)"/>
     <use xlink:href="#PingFangHK-Regular-ff08" transform="translate(1099.999832 0)"/>
     <use xlink:href="#PingFangHK-Regular-5168" transform="translate(1199.999817 0)"/>
     <use xlink:href="#PingFangHK-Regular-90e8" transform="translate(1299.999802 0)"/>
     <use xlink:href="#PingFangHK-Regular-6536" transform="translate(1399.999786 0)"/>
     <use xlink:href="#PingFangHK-Regular-655b" transform="translate(1499.999771 0)"/>
     <use xlink:href="#PingFangHK-Regular-6b63" transform="translate(1599.999756 0)"/>
     <use xlink:href="#PingFangHK-Regular-786e" transform="translate(1699.999741 0)"/>
     <use xlink:href="#PingFangHK-Regular-ff09" transform="translate(1799.999725 0)"/>
    </g>
   </g>
  </g>
 </g>
 <defs>
  <clipPath id="p80cca9f2e3">
   <rect x="50.15" y="26.44125" width="587.05" height="279.61475"/>
  </clipPath>
 </defs>
</svg>
